<svg xmlns="http://www.w3.org/2000/svg" xmlns:xlink="http://www.w3.org/1999/xlink" width="1000" zoomAndPan="magnify" viewBox="0 0 750 374.999991" height="500" preserveAspectRatio="xMidYMid meet" version="1.0"><defs><g/><clipPath id="1b09dfc01a"><path d="M 275.71875 92.859375 L 355.246094 92.859375 L 355.246094 106.777344 L 275.71875 106.777344 Z M 275.71875 92.859375 " clip-rule="nonzero"/></clipPath><clipPath id="29cbf60d73"><path d="M 426.207031 26.648438 L 458 26.648438 L 458 58 L 426.207031 58 Z M 426.207031 26.648438 " clip-rule="nonzero"/></clipPath><clipPath id="004c5a73c2"><path d="M 426.46875 214 L 457.523438 214 L 457.523438 245.542969 L 426.46875 245.542969 Z M 426.46875 214 " clip-rule="nonzero"/></clipPath><clipPath id="490fe3a023"><path d="M 629.664062 26.648438 L 660.738281 26.648438 L 660.738281 57.871094 L 629.664062 57.871094 Z M 629.664062 26.648438 " clip-rule="nonzero"/></clipPath><clipPath id="6eec09ebcc"><path d="M 629.664062 214 L 660.738281 214 L 660.738281 245.542969 L 629.664062 245.542969 Z M 629.664062 214 " clip-rule="nonzero"/></clipPath><clipPath id="086113b202"><path d="M 441.371094 41 L 644 41 L 644 244.949219 L 441.371094 244.949219 Z M 441.371094 41 " clip-rule="nonzero"/></clipPath><clipPath id="469dfb938f"><path d="M 436.652344 46.402344 L 465 46.402344 L 465 75 L 436.652344 75 Z M 436.652344 46.402344 " clip-rule="nonzero"/></clipPath><clipPath id="4350207c79"><path d="M 436.894531 212.523438 L 464.582031 212.523438 L 464.582031 239.933594 L 436.894531 239.933594 Z M 436.894531 212.523438 " clip-rule="nonzero"/></clipPath><clipPath id="a78af9f687"><path d="M 618.046875 46.402344 L 645.746094 46.402344 L 645.746094 74.089844 L 618.046875 74.089844 Z M 618.046875 46.402344 " clip-rule="nonzero"/></clipPath><clipPath id="84445c2c6a"><path d="M 618.046875 212.523438 L 645.746094 212.523438 L 645.746094 239.933594 L 618.046875 239.933594 Z M 618.046875 212.523438 " clip-rule="nonzero"/></clipPath></defs><g fill="#fffffe" fill-opacity="1"><g transform="translate(166.519629, 316.263846)"><g><path d="M 10.9375 -31.625 L 6.953125 -31.625 L 6.953125 3.34375 L 10.9375 3.34375 L 10.9375 6.53125 L 3.046875 6.53125 L 3.046875 -34.8125 L 10.9375 -34.8125 Z M 10.9375 -31.625 "/></g></g></g><g fill="#fffffe" fill-opacity="1"><g transform="translate(181.093058, 316.263846)"><g/></g></g><g fill="#fffffe" fill-opacity="1"><g transform="translate(194.913375, 316.263846)"><g><path d="M 16.109375 -6 C 16.109375 -7.050781 15.710938 -7.863281 14.921875 -8.4375 C 14.140625 -9.019531 12.765625 -9.519531 10.796875 -9.9375 C 8.835938 -10.351562 7.285156 -10.851562 6.140625 -11.4375 C 4.992188 -12.03125 4.144531 -12.726562 3.59375 -13.53125 C 3.039062 -14.34375 2.765625 -15.304688 2.765625 -16.421875 C 2.765625 -18.273438 3.546875 -19.84375 5.109375 -21.125 C 6.679688 -22.40625 8.6875 -23.046875 11.125 -23.046875 C 13.695312 -23.046875 15.78125 -22.382812 17.375 -21.0625 C 18.96875 -19.738281 19.765625 -18.046875 19.765625 -15.984375 L 15.875 -15.984375 C 15.875 -17.046875 15.421875 -17.957031 14.515625 -18.71875 C 13.617188 -19.488281 12.488281 -19.875 11.125 -19.875 C 9.71875 -19.875 8.613281 -19.566406 7.8125 -18.953125 C 7.019531 -18.335938 6.625 -17.535156 6.625 -16.546875 C 6.625 -15.609375 6.992188 -14.898438 7.734375 -14.421875 C 8.472656 -13.953125 9.804688 -13.5 11.734375 -13.0625 C 13.671875 -12.632812 15.238281 -12.117188 16.4375 -11.515625 C 17.632812 -10.921875 18.523438 -10.203125 19.109375 -9.359375 C 19.691406 -8.515625 19.984375 -7.488281 19.984375 -6.28125 C 19.984375 -4.257812 19.171875 -2.632812 17.546875 -1.40625 C 15.929688 -0.1875 13.832031 0.421875 11.25 0.421875 C 9.4375 0.421875 7.832031 0.101562 6.4375 -0.53125 C 5.039062 -1.175781 3.945312 -2.070312 3.15625 -3.21875 C 2.375 -4.375 1.984375 -5.625 1.984375 -6.96875 L 5.859375 -6.96875 C 5.929688 -5.664062 6.453125 -4.632812 7.421875 -3.875 C 8.390625 -3.113281 9.664062 -2.734375 11.25 -2.734375 C 12.71875 -2.734375 13.894531 -3.03125 14.78125 -3.625 C 15.664062 -4.21875 16.109375 -5.007812 16.109375 -6 Z M 16.109375 -6 "/></g></g></g><g fill="#fffffe" fill-opacity="1"><g transform="translate(220.218657, 316.263846)"><g><path d="M 6.796875 -19.890625 C 8.515625 -21.992188 10.75 -23.046875 13.5 -23.046875 C 18.28125 -23.046875 20.691406 -20.347656 20.734375 -14.953125 L 20.734375 0 L 16.859375 0 L 16.859375 -14.984375 C 16.847656 -16.609375 16.472656 -17.8125 15.734375 -18.59375 C 15.003906 -19.375 13.867188 -19.765625 12.328125 -19.765625 C 11.066406 -19.765625 9.960938 -19.429688 9.015625 -18.765625 C 8.066406 -18.097656 7.328125 -17.21875 6.796875 -16.125 L 6.796875 0 L 2.921875 0 L 2.921875 -32.140625 L 6.796875 -32.140625 Z M 6.796875 -19.890625 "/></g></g></g><g fill="#fffffe" fill-opacity="1"><g transform="translate(247.030171, 316.263846)"><g><path d="M 16.90625 0 C 16.675781 -0.445312 16.492188 -1.242188 16.359375 -2.390625 C 14.554688 -0.515625 12.410156 0.421875 9.921875 0.421875 C 7.679688 0.421875 5.847656 -0.207031 4.421875 -1.46875 C 2.992188 -2.738281 2.28125 -4.34375 2.28125 -6.28125 C 2.28125 -8.632812 3.175781 -10.460938 4.96875 -11.765625 C 6.757812 -13.066406 9.28125 -13.71875 12.53125 -13.71875 L 16.296875 -13.71875 L 16.296875 -15.5 C 16.296875 -16.851562 15.890625 -17.929688 15.078125 -18.734375 C 14.273438 -19.535156 13.082031 -19.9375 11.5 -19.9375 C 10.125 -19.9375 8.96875 -19.585938 8.03125 -18.890625 C 7.09375 -18.191406 6.625 -17.347656 6.625 -16.359375 L 2.734375 -16.359375 C 2.734375 -17.484375 3.132812 -18.570312 3.9375 -19.625 C 4.738281 -20.6875 5.828125 -21.519531 7.203125 -22.125 C 8.578125 -22.738281 10.085938 -23.046875 11.734375 -23.046875 C 14.335938 -23.046875 16.378906 -22.394531 17.859375 -21.09375 C 19.335938 -19.789062 20.109375 -17.992188 20.171875 -15.703125 L 20.171875 -5.296875 C 20.171875 -3.210938 20.4375 -1.554688 20.96875 -0.328125 L 20.96875 0 Z M 10.484375 -2.953125 C 11.691406 -2.953125 12.835938 -3.265625 13.921875 -3.890625 C 15.015625 -4.515625 15.804688 -5.332031 16.296875 -6.34375 L 16.296875 -10.984375 L 13.265625 -10.984375 C 8.523438 -10.984375 6.15625 -9.59375 6.15625 -6.8125 C 6.15625 -5.601562 6.554688 -4.65625 7.359375 -3.96875 C 8.171875 -3.289062 9.210938 -2.953125 10.484375 -2.953125 Z M 10.484375 -2.953125 "/></g></g></g><g fill="#fffffe" fill-opacity="1"><g transform="translate(273.548808, 316.263846)"><g><path d="M 13.875 -19.15625 C 13.28125 -19.257812 12.644531 -19.3125 11.96875 -19.3125 C 9.425781 -19.3125 7.703125 -18.226562 6.796875 -16.0625 L 6.796875 0 L 2.921875 0 L 2.921875 -22.640625 L 6.6875 -22.640625 L 6.75 -20.015625 C 8.019531 -22.035156 9.820312 -23.046875 12.15625 -23.046875 C 12.90625 -23.046875 13.476562 -22.953125 13.875 -22.765625 Z M 13.875 -19.15625 "/></g></g></g><g fill="#fffffe" fill-opacity="1"><g transform="translate(291.26021, 316.263846)"><g><path d="M 12.328125 0.421875 C 9.253906 0.421875 6.753906 -0.582031 4.828125 -2.59375 C 2.910156 -4.613281 1.953125 -7.3125 1.953125 -10.6875 L 1.953125 -11.40625 C 1.953125 -13.644531 2.378906 -15.644531 3.234375 -17.40625 C 4.085938 -19.175781 5.285156 -20.554688 6.828125 -21.546875 C 8.367188 -22.546875 10.039062 -23.046875 11.84375 -23.046875 C 14.78125 -23.046875 17.066406 -22.078125 18.703125 -20.140625 C 20.335938 -18.203125 21.15625 -15.425781 21.15625 -11.8125 L 21.15625 -10.203125 L 5.8125 -10.203125 C 5.875 -7.972656 6.523438 -6.171875 7.765625 -4.796875 C 9.015625 -3.421875 10.601562 -2.734375 12.53125 -2.734375 C 13.894531 -2.734375 15.050781 -3.015625 16 -3.578125 C 16.945312 -4.140625 17.78125 -4.878906 18.5 -5.796875 L 20.859375 -3.953125 C 18.960938 -1.035156 16.117188 0.421875 12.328125 0.421875 Z M 11.84375 -19.875 C 10.28125 -19.875 8.96875 -19.304688 7.90625 -18.171875 C 6.84375 -17.035156 6.1875 -15.441406 5.9375 -13.390625 L 17.28125 -13.390625 L 17.28125 -13.6875 C 17.164062 -15.644531 16.632812 -17.164062 15.6875 -18.25 C 14.738281 -19.332031 13.457031 -19.875 11.84375 -19.875 Z M 11.84375 -19.875 "/></g></g></g><g fill="#fffffe" fill-opacity="1"><g transform="translate(317.172173, 316.263846)"><g/></g></g><g fill="#fffffe" fill-opacity="1"><g transform="translate(330.992493, 316.263846)"><g><path d="M 10.328125 -5.671875 L 15.609375 -22.640625 L 19.75 -22.640625 L 10.640625 3.5 C 9.234375 7.257812 7 9.140625 3.9375 9.140625 L 3.203125 9.078125 L 1.75 8.8125 L 1.75 5.671875 L 2.796875 5.75 C 4.109375 5.75 5.128906 5.484375 5.859375 4.953125 C 6.597656 4.421875 7.203125 3.453125 7.671875 2.046875 L 8.53125 -0.25 L 0.453125 -22.640625 L 4.6875 -22.640625 Z M 10.328125 -5.671875 "/></g></g></g><g fill="#fffffe" fill-opacity="1"><g transform="translate(354.477759, 316.263846)"><g><path d="M 1.90625 -11.53125 C 1.90625 -13.75 2.335938 -15.742188 3.203125 -17.515625 C 4.078125 -19.285156 5.289062 -20.648438 6.84375 -21.609375 C 8.40625 -22.566406 10.179688 -23.046875 12.171875 -23.046875 C 15.253906 -23.046875 17.75 -21.976562 19.65625 -19.84375 C 21.5625 -17.71875 22.515625 -14.882812 22.515625 -11.34375 L 22.515625 -11.0625 C 22.515625 -8.863281 22.09375 -6.890625 21.25 -5.140625 C 20.40625 -3.390625 19.195312 -2.023438 17.625 -1.046875 C 16.050781 -0.0664062 14.25 0.421875 12.21875 0.421875 C 9.144531 0.421875 6.65625 -0.644531 4.75 -2.78125 C 2.851562 -4.914062 1.90625 -7.738281 1.90625 -11.25 Z M 5.796875 -11.0625 C 5.796875 -8.550781 6.375 -6.535156 7.53125 -5.015625 C 8.695312 -3.492188 10.257812 -2.734375 12.21875 -2.734375 C 14.1875 -2.734375 15.75 -3.503906 16.90625 -5.046875 C 18.0625 -6.585938 18.640625 -8.75 18.640625 -11.53125 C 18.640625 -14.007812 18.050781 -16.019531 16.875 -17.5625 C 15.695312 -19.101562 14.128906 -19.875 12.171875 -19.875 C 10.265625 -19.875 8.722656 -19.113281 7.546875 -17.59375 C 6.378906 -16.070312 5.796875 -13.894531 5.796875 -11.0625 Z M 5.796875 -11.0625 "/></g></g></g><g fill="#fffffe" fill-opacity="1"><g transform="translate(382.126053, 316.263846)"><g><path d="M 16.90625 -2.234375 C 15.394531 -0.460938 13.179688 0.421875 10.265625 0.421875 C 7.859375 0.421875 6.019531 -0.273438 4.75 -1.671875 C 3.488281 -3.078125 2.851562 -5.15625 2.84375 -7.90625 L 2.84375 -22.640625 L 6.71875 -22.640625 L 6.71875 -8.015625 C 6.71875 -4.578125 8.113281 -2.859375 10.90625 -2.859375 C 13.851562 -2.859375 15.816406 -3.960938 16.796875 -6.171875 L 16.796875 -22.640625 L 20.671875 -22.640625 L 20.671875 0 L 16.984375 0 Z M 16.90625 -2.234375 "/></g></g></g><g fill="#fffffe" fill-opacity="1"><g transform="translate(408.958487, 316.263846)"><g><path d="M 13.875 -19.15625 C 13.28125 -19.257812 12.644531 -19.3125 11.96875 -19.3125 C 9.425781 -19.3125 7.703125 -18.226562 6.796875 -16.0625 L 6.796875 0 L 2.921875 0 L 2.921875 -22.640625 L 6.6875 -22.640625 L 6.75 -20.015625 C 8.019531 -22.035156 9.820312 -23.046875 12.15625 -23.046875 C 12.90625 -23.046875 13.476562 -22.953125 13.875 -22.765625 Z M 13.875 -19.15625 "/></g></g></g><g fill="#fffffe" fill-opacity="1"><g transform="translate(426.669889, 316.263846)"><g/></g></g><g fill="#fffffe" fill-opacity="1"><g transform="translate(440.490208, 316.263846)"><g><path d="M 6.5625 -22.640625 L 6.671875 -20.125 C 8.328125 -22.070312 10.566406 -23.046875 13.390625 -23.046875 C 16.554688 -23.046875 18.710938 -21.832031 19.859375 -19.40625 C 20.609375 -20.5 21.585938 -21.378906 22.796875 -22.046875 C 24.003906 -22.710938 25.425781 -23.046875 27.0625 -23.046875 C 32.03125 -23.046875 34.554688 -20.421875 34.640625 -15.171875 L 34.640625 0 L 30.765625 0 L 30.765625 -14.9375 C 30.765625 -16.550781 30.394531 -17.757812 29.65625 -18.5625 C 28.925781 -19.363281 27.6875 -19.765625 25.9375 -19.765625 C 24.5 -19.765625 23.304688 -19.335938 22.359375 -18.484375 C 21.410156 -17.628906 20.859375 -16.472656 20.703125 -15.015625 L 20.703125 0 L 16.8125 0 L 16.8125 -14.828125 C 16.8125 -18.117188 15.203125 -19.765625 11.984375 -19.765625 C 9.441406 -19.765625 7.707031 -18.6875 6.78125 -16.53125 L 6.78125 0 L 2.90625 0 L 2.90625 -22.640625 Z M 6.5625 -22.640625 "/></g></g></g><g fill="#fffffe" fill-opacity="1"><g transform="translate(481.255228, 316.263846)"><g><path d="M 12.328125 0.421875 C 9.253906 0.421875 6.753906 -0.582031 4.828125 -2.59375 C 2.910156 -4.613281 1.953125 -7.3125 1.953125 -10.6875 L 1.953125 -11.40625 C 1.953125 -13.644531 2.378906 -15.644531 3.234375 -17.40625 C 4.085938 -19.175781 5.285156 -20.554688 6.828125 -21.546875 C 8.367188 -22.546875 10.039062 -23.046875 11.84375 -23.046875 C 14.78125 -23.046875 17.066406 -22.078125 18.703125 -20.140625 C 20.335938 -18.203125 21.15625 -15.425781 21.15625 -11.8125 L 21.15625 -10.203125 L 5.8125 -10.203125 C 5.875 -7.972656 6.523438 -6.171875 7.765625 -4.796875 C 9.015625 -3.421875 10.601562 -2.734375 12.53125 -2.734375 C 13.894531 -2.734375 15.050781 -3.015625 16 -3.578125 C 16.945312 -4.140625 17.78125 -4.878906 18.5 -5.796875 L 20.859375 -3.953125 C 18.960938 -1.035156 16.117188 0.421875 12.328125 0.421875 Z M 11.84375 -19.875 C 10.28125 -19.875 8.96875 -19.304688 7.90625 -18.171875 C 6.84375 -17.035156 6.1875 -15.441406 5.9375 -13.390625 L 17.28125 -13.390625 L 17.28125 -13.6875 C 17.164062 -15.644531 16.632812 -17.164062 15.6875 -18.25 C 14.738281 -19.332031 13.457031 -19.875 11.84375 -19.875 Z M 11.84375 -19.875 "/></g></g></g><g fill="#fffffe" fill-opacity="1"><g transform="translate(507.167191, 316.263846)"><g><path d="M 16.90625 0 C 16.675781 -0.445312 16.492188 -1.242188 16.359375 -2.390625 C 14.554688 -0.515625 12.410156 0.421875 9.921875 0.421875 C 7.679688 0.421875 5.847656 -0.207031 4.421875 -1.46875 C 2.992188 -2.738281 2.28125 -4.34375 2.28125 -6.28125 C 2.28125 -8.632812 3.175781 -10.460938 4.96875 -11.765625 C 6.757812 -13.066406 9.28125 -13.71875 12.53125 -13.71875 L 16.296875 -13.71875 L 16.296875 -15.5 C 16.296875 -16.851562 15.890625 -17.929688 15.078125 -18.734375 C 14.273438 -19.535156 13.082031 -19.9375 11.5 -19.9375 C 10.125 -19.9375 8.96875 -19.585938 8.03125 -18.890625 C 7.09375 -18.191406 6.625 -17.347656 6.625 -16.359375 L 2.734375 -16.359375 C 2.734375 -17.484375 3.132812 -18.570312 3.9375 -19.625 C 4.738281 -20.6875 5.828125 -21.519531 7.203125 -22.125 C 8.578125 -22.738281 10.085938 -23.046875 11.734375 -23.046875 C 14.335938 -23.046875 16.378906 -22.394531 17.859375 -21.09375 C 19.335938 -19.789062 20.109375 -17.992188 20.171875 -15.703125 L 20.171875 -5.296875 C 20.171875 -3.210938 20.4375 -1.554688 20.96875 -0.328125 L 20.96875 0 Z M 10.484375 -2.953125 C 11.691406 -2.953125 12.835938 -3.265625 13.921875 -3.890625 C 15.015625 -4.515625 15.804688 -5.332031 16.296875 -6.34375 L 16.296875 -10.984375 L 13.265625 -10.984375 C 8.523438 -10.984375 6.15625 -9.59375 6.15625 -6.8125 C 6.15625 -5.601562 6.554688 -4.65625 7.359375 -3.96875 C 8.171875 -3.289062 9.210938 -2.953125 10.484375 -2.953125 Z M 10.484375 -2.953125 "/></g></g></g><g fill="#fffffe" fill-opacity="1"><g transform="translate(533.685828, 316.263846)"><g><path d="M 7.140625 0 L 3.265625 0 L 3.265625 -32.140625 L 7.140625 -32.140625 Z M 7.140625 0 "/></g></g></g><g fill="#fffffe" fill-opacity="1"><g transform="translate(547.296949, 316.263846)"><g/></g></g><g fill="#fffffe" fill-opacity="1"><g transform="translate(561.117246, 316.263846)"><g><path d="M 0.1875 -34.8125 L 8.09375 -34.8125 L 8.09375 6.53125 L 0.1875 6.53125 L 0.1875 3.34375 L 4.21875 3.34375 L 4.21875 -31.625 L 0.1875 -31.625 Z M 0.1875 -34.8125 "/></g></g></g><g fill="#ffffff" fill-opacity="1"><g transform="translate(100.06051, 215.527944)"><g><path d="M 11.203125 39.59375 L 11.203125 -95.78125 L 26.59375 -95.78125 L 30.59375 -85.78125 C 34.457031 -89.644531 38.890625 -92.644531 43.890625 -94.78125 C 48.890625 -96.914062 54.523438 -97.984375 60.796875 -97.984375 C 67.453125 -97.984375 73.613281 -96.679688 79.28125 -94.078125 C 84.945312 -91.484375 89.847656 -87.921875 93.984375 -83.390625 C 98.117188 -78.859375 101.351562 -73.523438 103.6875 -67.390625 C 106.019531 -61.253906 107.1875 -54.722656 107.1875 -47.796875 C 107.1875 -40.859375 106.019531 -34.320312 103.6875 -28.1875 C 101.351562 -22.0625 98.117188 -16.734375 93.984375 -12.203125 C 89.847656 -7.671875 84.945312 -4.101562 79.28125 -1.5 C 73.613281 1.101562 67.453125 2.40625 60.796875 2.40625 C 54.253906 2.40625 48.515625 1.304688 43.578125 -0.890625 C 38.648438 -3.097656 34.320312 -6.265625 30.59375 -10.390625 L 30.59375 39.59375 Z M 59.1875 -80.390625 C 55.320312 -80.390625 51.65625 -79.753906 48.1875 -78.484375 C 44.726562 -77.222656 41.695312 -75.222656 39.09375 -72.484375 C 36.488281 -69.753906 34.453125 -66.351562 32.984375 -62.28125 C 31.523438 -58.21875 30.796875 -53.390625 30.796875 -47.796875 C 30.796875 -41.796875 31.523438 -36.695312 32.984375 -32.5 C 34.453125 -28.300781 36.488281 -24.898438 39.09375 -22.296875 C 41.695312 -19.691406 44.726562 -17.789062 48.1875 -16.59375 C 51.65625 -15.394531 55.320312 -14.796875 59.1875 -14.796875 C 63.050781 -14.796875 66.71875 -15.660156 70.1875 -17.390625 C 73.65625 -19.128906 76.65625 -21.5 79.1875 -24.5 C 81.71875 -27.5 83.71875 -31 85.1875 -35 C 86.65625 -39 87.390625 -43.265625 87.390625 -47.796875 C 87.390625 -52.328125 86.65625 -56.59375 85.1875 -60.59375 C 83.71875 -64.59375 81.71875 -68.054688 79.1875 -70.984375 C 76.65625 -73.921875 73.65625 -76.222656 70.1875 -77.890625 C 66.71875 -79.554688 63.050781 -80.390625 59.1875 -80.390625 Z M 59.1875 -80.390625 "/></g></g></g><g fill="#ffffff" fill-opacity="1"><g transform="translate(212.841083, 215.527944)"><g><path d="M 31.59375 -145.984375 L 31.59375 0 L 12.203125 0 L 12.203125 -145.984375 Z M 31.59375 -145.984375 "/></g></g></g><g fill="#ffffff" fill-opacity="1"><g transform="translate(255.233794, 215.527944)"><g><path d="M 101.984375 -95.78125 L 101.984375 0 L 85.59375 0 L 82.59375 -11 C 79.257812 -6.601562 74.988281 -3.269531 69.78125 -1 C 64.582031 1.269531 59.316406 2.40625 53.984375 2.40625 C 47.328125 2.40625 41.097656 1.101562 35.296875 -1.5 C 29.492188 -4.101562 24.425781 -7.671875 20.09375 -12.203125 C 15.757812 -16.734375 12.328125 -22.0625 9.796875 -28.1875 C 7.265625 -34.320312 6 -40.859375 6 -47.796875 C 6 -54.722656 7.265625 -61.253906 9.796875 -67.390625 C 12.328125 -73.523438 15.757812 -78.859375 20.09375 -83.390625 C 24.425781 -87.921875 29.492188 -91.484375 35.296875 -94.078125 C 41.097656 -96.679688 47.328125 -97.984375 53.984375 -97.984375 C 59.316406 -97.984375 64.445312 -96.945312 69.375 -94.875 C 74.3125 -92.8125 78.71875 -89.582031 82.59375 -85.1875 L 85.59375 -95.78125 Z M 53.984375 -14.796875 C 57.859375 -14.796875 61.523438 -15.660156 64.984375 -17.390625 C 68.453125 -19.128906 71.453125 -21.5 73.984375 -24.5 C 76.515625 -27.5 78.515625 -31 79.984375 -35 C 81.453125 -39 82.1875 -43.265625 82.1875 -47.796875 C 82.1875 -52.328125 81.453125 -56.59375 79.984375 -60.59375 C 78.515625 -64.59375 76.515625 -68.09375 73.984375 -71.09375 C 71.453125 -74.09375 68.453125 -76.457031 64.984375 -78.1875 C 61.523438 -79.914062 57.859375 -80.78125 53.984375 -80.78125 C 50.117188 -80.78125 46.453125 -79.914062 42.984375 -78.1875 C 39.523438 -76.457031 36.523438 -74.09375 33.984375 -71.09375 C 31.453125 -68.09375 29.453125 -64.59375 27.984375 -60.59375 C 26.523438 -56.59375 25.796875 -52.328125 25.796875 -47.796875 C 25.796875 -43.265625 26.523438 -39 27.984375 -35 C 29.453125 -31 31.453125 -27.5 33.984375 -24.5 C 36.523438 -21.5 39.523438 -19.128906 42.984375 -17.390625 C 46.453125 -15.660156 50.117188 -14.796875 53.984375 -14.796875 Z M 53.984375 -14.796875 "/></g></g></g><g fill="#ffffff" fill-opacity="1"><g transform="translate(365.814757, 215.527944)"><g><path d="M 63.1875 -0.203125 C 57.71875 1.660156 52.316406 2.789062 46.984375 3.1875 C 41.660156 3.59375 36.863281 2.828125 32.59375 0.890625 C 28.332031 -1.035156 24.867188 -4.429688 22.203125 -9.296875 C 19.535156 -14.160156 18.203125 -20.992188 18.203125 -29.796875 L 18.203125 -78.390625 L 4.203125 -78.390625 L 4.203125 -91.78125 L 18.203125 -95.78125 L 18.203125 -121.375 L 37.59375 -121.375 L 37.59375 -95.78125 L 63.59375 -95.78125 L 63.59375 -78.390625 L 37.59375 -78.390625 L 37.59375 -26.796875 C 37.59375 -23.597656 37.957031 -21.0625 38.6875 -19.1875 C 39.425781 -17.320312 40.660156 -15.921875 42.390625 -14.984375 C 44.128906 -14.054688 46.394531 -13.59375 49.1875 -13.59375 C 51.988281 -13.59375 55.390625 -13.859375 59.390625 -14.390625 Z M 63.1875 -0.203125 "/></g></g></g><g fill="#ffffff" fill-opacity="1"><g transform="translate(434.227169, 215.527944)"><g/></g></g><g fill="#ffffff" fill-opacity="1"><g transform="translate(486.41817, 215.527944)"><g/></g></g><g fill="#ffffff" fill-opacity="1"><g transform="translate(538.60917, 215.527944)"><g/></g></g><g fill="#ffffff" fill-opacity="1"><g transform="translate(590.800171, 215.527944)"><g/></g></g><g fill="#ffffff" fill-opacity="1"><g transform="translate(642.991171, 215.527944)"><g/></g></g><g clip-path="url(#1b09dfc01a)"><path fill="#ffffff" d="M 352.113281 94.074219 C 351.660156 93.921875 351.054688 93.867188 350.441406 93.816406 C 350.484375 93.785156 350.5 93.742188 350.496094 93.683594 C 350.152344 93.671875 350.007812 93.785156 349.636719 93.757812 C 349.75 93.6875 349.65625 93.628906 349.472656 93.65625 C 349.578125 93.570312 349.914062 93.625 349.902344 93.71875 C 349.972656 93.710938 349.957031 93.652344 349.902344 93.652344 C 350.777344 93.699219 351.679688 93.558594 352.429688 93.703125 C 351.992188 93.414062 350.5625 93.421875 349.898438 93.253906 C 349.941406 93.175781 350.234375 93.21875 350.167969 93.316406 C 350.242188 93.285156 350.371094 93.285156 350.382812 93.214844 C 350.96875 93.324219 351.628906 93.367188 352.214844 93.335938 C 352.878906 93.578125 353.773438 93.671875 354.15625 94.09375 C 354.179688 94.363281 354.101562 94.507812 354.160156 94.726562 C 353.988281 95.007812 353.800781 95.28125 353.464844 95.464844 C 353.699219 95.738281 353.835938 95.945312 353.847656 96.230469 C 353.777344 96.285156 353.453125 96.351562 353.6875 96.398438 C 353.578125 96.441406 353.460938 96.480469 353.367188 96.535156 C 353.394531 96.621094 353.664062 96.644531 353.53125 96.734375 C 353.34375 96.761719 353.324219 96.683594 353.152344 96.703125 C 353.195312 96.898438 353.589844 96.980469 353.695312 97.234375 C 353.828125 97.542969 353.582031 97.917969 353.597656 98.300781 C 353.070312 98.304688 353.257812 98.796875 352.523438 98.742188 C 353.078125 98.957031 353.886719 99.175781 354.570312 99.195312 C 354.695312 99.332031 354.871094 99.691406 354.574219 99.796875 C 354.640625 99.859375 354.71875 99.910156 354.792969 99.960938 C 354.679688 100.046875 354.242188 99.964844 354.417969 100.132812 C 353.878906 100.214844 353.1875 100.09375 352.804688 100.375 C 352.8125 100.460938 353.007812 100.429688 353.074219 100.476562 C 353.09375 100.558594 352.976562 100.671875 353.023438 100.742188 C 353.328125 100.8125 353.175781 100.867188 353.457031 100.871094 C 353.390625 100.964844 353.289062 101.035156 353.082031 101.042969 C 353.246094 101.128906 353.546875 101.128906 353.621094 101.273438 C 353.007812 101.429688 352.738281 101.324219 352.0625 101.351562 C 353.035156 101.519531 353.902344 101.753906 354.699219 102.03125 C 354.710938 102.179688 354.722656 102.324219 354.59375 102.300781 C 354.695312 102.40625 354.777344 102.328125 354.863281 102.265625 C 354.921875 102.554688 354.953125 102.730469 355.246094 102.898438 C 355.140625 103.132812 354.765625 103.042969 354.441406 103.101562 C 354.488281 103.261719 354.5625 103.40625 354.820312 103.433594 C 354.652344 103.738281 353.738281 103.695312 353.425781 103.8125 C 353.546875 104.011719 353.882812 103.84375 354.175781 103.804688 C 354.105469 103.941406 354.296875 103.910156 354.285156 104.003906 C 353.328125 104.039062 353.242188 104.3125 352.246094 104.21875 C 352.21875 105.089844 351.511719 105.542969 351.132812 106.195312 C 350.664062 106.117188 350.457031 106.261719 350.21875 106.402344 C 350.195312 106.496094 350.511719 106.375 350.488281 106.46875 C 350.066406 106.585938 349.476562 106.566406 348.875 106.613281 C 348.3125 106.65625 347.839844 106.65625 347.476562 106.523438 C 344.710938 106.855469 342.539062 106.59375 339.628906 106.746094 C 339.578125 106.636719 339.804688 106.699219 339.789062 106.609375 C 338.894531 106.605469 337.324219 106.855469 336.453125 106.667969 C 336.28125 106.699219 336.378906 106.558594 336.292969 106.535156 C 335.613281 106.554688 335 106.769531 334.570312 106.546875 C 333.605469 106.496094 332.53125 106.769531 331.828125 106.566406 C 329.003906 106.609375 326.726562 106.730469 324.351562 106.484375 C 323.003906 106.421875 321.898438 106.511719 320.535156 106.445312 C 320.726562 106.285156 321.175781 106.28125 321.554688 106.238281 C 321.058594 106.179688 320.25 106.171875 319.566406 106.21875 C 317.285156 106.375 314.90625 106.320312 312.574219 106.234375 C 312.46875 106.15625 312.589844 106.195312 312.628906 106.132812 C 312.171875 106.023438 311.691406 106.175781 311.285156 106.207031 C 311.183594 106.144531 311.277344 106.125 311.285156 106.042969 C 310.824219 106 310.957031 106.140625 310.691406 106.179688 C 310.441406 106.210938 310.765625 106.09375 310.585938 106.078125 C 310.46875 106.066406 310.484375 106.128906 310.476562 106.179688 C 309.863281 106.132812 309.367188 106.105469 308.648438 106.160156 C 308.429688 106.175781 308.691406 106.074219 308.542969 106.027344 C 307.636719 106.015625 306.355469 106.210938 305.371094 106.117188 C 304.902344 106.070312 304.605469 106.121094 304.078125 106.125 C 303.628906 106.128906 303.183594 105.953125 302.679688 105.902344 C 302.261719 105.859375 301.640625 105.996094 301.011719 105.914062 C 301.023438 105.863281 301.171875 105.902344 301.171875 105.84375 C 299.34375 105.90625 297.097656 105.914062 295.367188 106.085938 C 293.277344 105.957031 290.859375 106.28125 288.96875 106.265625 C 289.015625 106.214844 289.105469 106.191406 289.238281 106.195312 C 287.386719 106.0625 284.550781 106.039062 282.191406 106.113281 C 281.96875 106.128906 281.964844 106.28125 281.65625 106.25 C 281.515625 106.441406 281.082031 106.453125 280.796875 106.523438 C 280.75 106.535156 280.585938 106.621094 280.53125 106.625 C 279.671875 106.660156 279.925781 106.042969 279.445312 105.730469 C 279.195312 105.828125 278.929688 105.867188 278.695312 105.734375 C 278.710938 105.523438 279.105469 105.542969 279.230469 105.398438 C 279.160156 105.351562 278.925781 105.292969 278.90625 105.402344 C 278.785156 105.332031 278.789062 105.226562 278.90625 105.167969 C 278.714844 105.148438 278.773438 105.285156 278.585938 105.269531 C 278.5625 105.199219 278.621094 105.179688 278.636719 105.132812 C 278.464844 105.117188 278.472656 105.199219 278.367188 105.136719 C 278.351562 104.929688 278.378906 104.746094 278.578125 104.667969 C 277.5 104.457031 276.621094 103.914062 275.71875 103.488281 C 275.742188 103.28125 276.015625 103.226562 276.039062 103.019531 C 276.695312 102.894531 277.121094 102.832031 277.917969 102.804688 C 278.046875 102.738281 277.820312 102.617188 277.96875 102.535156 C 278.195312 102.566406 278.511719 102.558594 278.667969 102.398438 C 278.472656 102.351562 278.375 102.386719 278.128906 102.335938 C 278.164062 102.257812 278.308594 102.246094 278.34375 102.167969 C 278.003906 101.976562 278.546875 101.675781 278.339844 101.464844 C 278.429688 101.386719 278.640625 101.519531 278.824219 101.496094 C 278.539062 101.394531 279.113281 101.4375 279.199219 101.359375 C 279.175781 101.289062 278.75 101.433594 278.875 101.296875 C 278.335938 101.347656 278.496094 101.273438 278.070312 101.300781 C 278.132812 100.792969 278.960938 100.597656 279.835938 100.355469 C 279.714844 100.253906 279.511719 100.058594 279.617188 99.921875 C 279.542969 99.859375 279.316406 99.980469 279.1875 99.992188 C 279.1875 99.890625 279.328125 99.875 279.347656 99.789062 C 279.21875 99.710938 279.246094 99.839844 279.078125 99.824219 C 279.238281 99.628906 279.527344 99.691406 279.777344 99.585938 C 279.53125 99.460938 279.277344 99.582031 278.96875 99.59375 C 278.992188 99.539062 279.136719 99.5625 279.078125 99.457031 C 278.921875 99.453125 278.972656 99.570312 278.753906 99.527344 C 278.726562 99.421875 278.917969 99.449219 278.859375 99.324219 C 278.582031 99.363281 278.246094 99.398438 278 99.363281 C 278 99.242188 278.1875 99.234375 278.269531 99.164062 C 278.089844 99.109375 277.964844 99.199219 277.730469 99.199219 C 277.707031 99.054688 277.707031 98.898438 278.105469 98.863281 C 278.085938 98.785156 278.113281 98.734375 278.15625 98.695312 C 277.929688 98.601562 277.832031 98.660156 277.351562 98.636719 C 277.265625 98.484375 277.574219 98.375 277.507812 98.265625 C 277.359375 98.023438 277.058594 98.070312 276.644531 98.074219 C 276.816406 97.9375 276.734375 97.851562 276.910156 97.738281 C 276.640625 97.636719 276.839844 97.511719 276.851562 97.304688 C 276.949219 97.296875 276.96875 97.34375 277.070312 97.335938 C 277.191406 96.976562 278.132812 97.121094 278.246094 96.761719 C 278 96.691406 278.152344 96.371094 277.921875 96.292969 C 278.222656 95.859375 277.949219 95.070312 278.933594 95.050781 C 278.875 94.910156 278.699219 94.839844 278.394531 94.855469 C 278.441406 94.703125 278.277344 94.683594 278.070312 94.691406 C 278.15625 94.519531 278.1875 94.507812 277.960938 94.425781 C 278.203125 94.132812 278.140625 93.835938 278.382812 93.421875 C 280.605469 93.535156 283.6875 93.53125 285.644531 93.636719 C 285.695312 93.636719 285.683594 93.59375 285.695312 93.570312 C 286.125 93.753906 286.78125 93.644531 287.203125 93.523438 C 287.175781 93.550781 287.148438 93.578125 287.148438 93.625 C 287.382812 93.648438 287.453125 93.566406 287.6875 93.589844 C 288.148438 93.660156 289.863281 93.449219 290.964844 93.433594 C 292.175781 93.414062 293.433594 93.257812 294.027344 93.109375 C 294.21875 93.398438 294.835938 93.285156 295.480469 93.265625 C 295.644531 93.253906 295.574219 93.386719 295.695312 93.398438 C 296.027344 93.25 296.984375 93.480469 297.363281 93.289062 C 297.394531 93.199219 297.339844 93.167969 297.203125 93.1875 C 297.582031 93.070312 298.0625 93.199219 298.492188 93.113281 C 298.457031 93.078125 298.367188 93.078125 298.382812 93.011719 C 299.117188 93.050781 299.898438 93.160156 300.375 93.332031 C 300.636719 93.265625 300.796875 93.367188 301.019531 93.394531 C 301.660156 93.472656 302.625 93.320312 303.386719 93.3125 C 305.730469 93.285156 308.035156 93.46875 310.214844 93.332031 C 310.25 93.363281 310.339844 93.363281 310.324219 93.429688 C 312.027344 93.402344 313.382812 93.285156 315.054688 93.296875 C 315.070312 93.207031 314.941406 93.210938 314.839844 93.199219 C 315.265625 93.164062 315.667969 93.285156 316.023438 93.355469 C 316.394531 93.121094 316.683594 93.386719 317.207031 93.382812 C 317.238281 93.457031 317.105469 93.429688 317.097656 93.484375 C 318.847656 93.597656 320.414062 93.078125 322.207031 93.347656 C 322.277344 93.289062 322.382812 93.253906 322.527344 93.246094 C 322.476562 93.457031 321.980469 93.398438 321.722656 93.484375 C 322.546875 93.488281 323.542969 93.378906 324.519531 93.5625 C 324.859375 93.25 325.835938 93.441406 326.617188 93.347656 C 326.632812 93.402344 326.566406 93.40625 326.5625 93.449219 C 326.816406 93.445312 326.972656 93.507812 327.207031 93.511719 C 327.210938 93.398438 327.007812 93.414062 326.832031 93.414062 C 327.261719 93.25 327.863281 93.535156 328.066406 93.207031 C 328.359375 93.246094 328.554688 93.246094 328.710938 93.132812 C 328.726562 93.1875 328.660156 93.191406 328.65625 93.234375 C 330.148438 93.421875 331.839844 93.398438 333.765625 93.398438 C 333.742188 93.269531 333.398438 93.34375 333.28125 93.269531 C 335.109375 93.101562 337.167969 93.597656 339.035156 93.230469 C 338.769531 93.125 338.164062 93.144531 337.957031 93.105469 C 337.847656 93.085938 337.605469 93.148438 337.582031 93.074219 C 338.195312 93.085938 338.40625 92.988281 338.925781 92.996094 C 339.011719 92.957031 339.039062 92.886719 339.195312 92.894531 C 339.078125 92.964844 339.222656 92.988281 339.195312 93.09375 C 339.429688 93.125 339.496094 93.054688 339.625 93.023438 C 339.921875 93.171875 340.195312 93.113281 340.539062 93.019531 C 342.40625 93.34375 344.789062 93.058594 346.886719 93.175781 C 346.378906 93.339844 345.628906 93.171875 345.167969 93.386719 C 345.261719 93.472656 345.699219 93.339844 345.597656 93.550781 C 345.828125 93.570312 345.816406 93.441406 346.027344 93.449219 C 346.097656 93.492188 346.097656 93.570312 346.03125 93.613281 C 346.464844 93.535156 347.277344 93.550781 347.804688 93.738281 C 347.644531 93.738281 347.484375 93.738281 347.320312 93.738281 C 348.4375 93.820312 350.164062 94.011719 351.464844 93.976562 C 351.582031 94.148438 351.691406 93.984375 352.113281 94.074219 Z M 313.445312 93.507812 C 313.710938 93.492188 313.992188 93.53125 313.765625 93.640625 C 313.984375 93.652344 314.042969 93.5625 314.195312 93.535156 C 313.96875 93.535156 314.070312 93.460938 314.140625 93.402344 C 313.933594 93.527344 313.476562 93.289062 313.445312 93.507812 Z M 339.574219 93.292969 C 339.507812 93.285156 339.464844 93.242188 339.46875 93.324219 C 339.742188 93.320312 340.007812 93.289062 340.167969 93.320312 C 340.152344 93.179688 339.703125 93.203125 339.574219 93.292969 Z M 324.742188 94.128906 C 324.6875 94.253906 325.042969 94.199219 325.011719 94.128906 C 324.875 94.125 324.84375 94.066406 324.742188 94.128906 Z M 325.117188 94.195312 C 325.296875 94.171875 325.617188 94.234375 325.707031 94.15625 C 325.421875 94.140625 325.300781 94.046875 325.117188 94.195312 Z M 317.117188 95.785156 C 317.273438 95.886719 317.574219 95.761719 317.601562 95.882812 C 317.761719 95.882812 317.875 95.78125 317.980469 95.847656 C 317.980469 95.804688 317.980469 95.757812 317.976562 95.714844 C 317.710938 95.75 317.34375 95.726562 317.117188 95.785156 Z M 342.296875 97.414062 C 342.457031 97.378906 342.6875 97.386719 342.726562 97.277344 C 342.515625 97.28125 342.253906 97.253906 342.296875 97.414062 Z M 343.480469 97.636719 C 344.226562 97.570312 343.160156 97.542969 343.050781 97.640625 C 343.230469 97.632812 343.371094 97.648438 343.480469 97.636719 Z M 294.726562 99.816406 C 294.769531 99.84375 295.054688 99.847656 295.046875 99.746094 C 294.90625 99.75 294.730469 99.730469 294.726562 99.816406 Z M 310.765625 101.640625 C 310.832031 101.515625 310.445312 101.507812 310.386719 101.574219 C 310.597656 101.542969 310.523438 101.691406 310.765625 101.640625 Z M 311.625 101.632812 C 312.101562 101.691406 312.5 101.632812 313.078125 101.65625 C 312.78125 101.609375 311.921875 101.503906 311.625 101.632812 Z M 314.421875 101.648438 C 314.335938 101.644531 314.234375 101.652344 314.261719 101.582031 C 313.933594 101.652344 313.441406 101.578125 313.183594 101.589844 C 313.777344 101.699219 314.054688 101.722656 314.421875 101.648438 Z M 308.777344 101.820312 C 308.410156 101.875 307.894531 101.734375 307.753906 101.859375 C 308.386719 101.949219 309.78125 101.984375 310.496094 101.839844 C 309.929688 101.808594 309.582031 101.726562 309.046875 101.785156 C 309.464844 101.90625 308.671875 101.742188 308.667969 101.753906 C 308.730469 101.761719 308.753906 101.789062 308.777344 101.820312 Z M 314.800781 101.777344 C 314.925781 101.777344 315.050781 101.777344 315.175781 101.773438 C 315.195312 101.640625 314.808594 101.722656 314.800781 101.777344 Z M 310.660156 101.839844 C 310.625 101.84375 310.59375 101.847656 310.605469 101.875 C 310.839844 101.890625 311.574219 101.847656 310.980469 101.839844 C 310.871094 101.765625 310.808594 101.867188 310.710938 101.804688 C 310.707031 101.785156 310.703125 101.765625 310.65625 101.773438 C 310.660156 101.796875 310.660156 101.816406 310.660156 101.839844 Z M 307.597656 102.0625 C 307.542969 102.128906 307.394531 102.140625 307.328125 102.199219 C 308.5 102.25 310.496094 102.203125 311.84375 102.164062 C 310.652344 101.984375 309.007812 102.175781 307.597656 102.0625 Z M 346.214844 103.394531 C 346.769531 103.605469 347.570312 103.683594 348.261719 103.648438 C 347.554688 103.617188 346.78125 103.289062 346.214844 103.394531 Z M 343.851562 103.746094 C 344.023438 103.84375 344.480469 103.824219 344.660156 103.738281 C 344.644531 103.816406 344.671875 103.863281 344.765625 103.871094 C 344.859375 103.800781 344.726562 103.804688 344.820312 103.738281 C 344.523438 103.605469 344.207031 103.675781 343.851562 103.746094 Z M 342.882812 103.785156 C 343.097656 103.773438 343.183594 103.839844 343.421875 103.8125 C 343.402344 103.644531 342.886719 103.714844 342.882812 103.785156 Z M 347.566406 104.050781 C 347.738281 104.082031 347.898438 104.074219 348.210938 104.082031 C 348.203125 103.925781 347.746094 104.023438 347.566406 104.050781 Z M 299.664062 105.589844 C 299.53125 105.648438 299.144531 105.527344 298.964844 105.628906 C 299.085938 105.726562 299.585938 105.710938 299.664062 105.589844 Z M 323.058594 105.761719 C 322.859375 105.785156 322.757812 105.679688 322.628906 105.761719 C 322.828125 105.914062 323.273438 105.867188 323.648438 105.855469 C 324.253906 105.835938 324.824219 105.753906 325.421875 105.808594 C 324.851562 105.628906 323.503906 105.730469 323.058594 105.761719 Z M 326.285156 105.769531 C 326.519531 105.8125 327.074219 105.773438 327.414062 105.695312 C 327.019531 105.734375 326.339844 105.570312 326.285156 105.769531 Z M 329.5625 105.679688 C 329.550781 105.828125 329.039062 105.667969 329.027344 105.816406 C 329.296875 105.871094 329.488281 105.824219 329.726562 105.78125 C 329.753906 105.867188 329.769531 105.890625 329.890625 105.976562 C 331.007812 105.683594 332.09375 106.152344 333.167969 105.855469 C 331.984375 105.710938 330.746094 105.871094 329.5625 105.679688 Z M 319.671875 105.882812 C 319.398438 105.882812 319.050781 105.742188 318.917969 105.957031 C 319.886719 106.007812 320.847656 105.984375 321.820312 105.800781 C 321.121094 105.796875 320.347656 105.882812 319.671875 105.882812 Z M 319.671875 105.882812 " fill-opacity="1" fill-rule="evenodd"/></g><g clip-path="url(#29cbf60d73)"><path fill="#3e7eaf" d="M 426.472656 26.648438 L 457.355469 26.648438 L 457.355469 28.007812 L 427.816406 28.007812 L 427.816406 57.859375 L 426.46875 57.859375 C 426.46875 47.457031 426.472656 37.042969 426.472656 26.648438 " fill-opacity="1" fill-rule="evenodd"/></g><g clip-path="url(#004c5a73c2)"><path fill="#3e7eaf" d="M 426.472656 245.542969 L 457.355469 245.542969 L 457.355469 244.191406 L 427.816406 244.191406 L 427.816406 214.332031 L 426.46875 214.332031 C 426.46875 224.734375 426.472656 235.144531 426.472656 245.542969 " fill-opacity="1" fill-rule="evenodd"/></g><g clip-path="url(#490fe3a023)"><path fill="#3e7eaf" d="M 660.734375 26.648438 L 629.851562 26.648438 L 629.851562 28.007812 L 659.390625 28.007812 L 659.390625 57.859375 L 660.738281 57.859375 C 660.738281 47.457031 660.734375 37.042969 660.734375 26.648438 " fill-opacity="1" fill-rule="evenodd"/></g><g clip-path="url(#6eec09ebcc)"><path fill="#3e7eaf" d="M 660.734375 245.542969 L 629.851562 245.542969 L 629.851562 244.191406 L 659.390625 244.191406 L 659.390625 214.332031 L 660.738281 214.332031 C 660.738281 224.734375 660.734375 235.144531 660.734375 245.542969 " fill-opacity="1" fill-rule="evenodd"/></g><path fill="#3e7eaf" d="M 542.222656 164.792969 L 544.976562 164.792969 L 544.976562 107.402344 L 542.222656 107.402344 L 542.222656 164.792969 " fill-opacity="1" fill-rule="evenodd"/><path fill="#3e7eaf" d="M 515.058594 137.480469 L 515.058594 134.714844 L 572.144531 134.714844 L 572.144531 137.480469 L 515.058594 137.480469 " fill-opacity="1" fill-rule="evenodd"/><g clip-path="url(#086113b202)"><path fill="#a8d2f0" d="M 542.683594 50.296875 C 593.878906 50.296875 635.554688 91.972656 635.554688 143.167969 C 635.554688 194.367188 593.878906 236.039062 542.683594 236.039062 C 491.476562 236.039062 449.8125 194.367188 449.8125 143.167969 C 449.8125 91.972656 491.476562 50.296875 542.683594 50.296875 Z M 542.683594 41.855469 C 486.734375 41.855469 441.371094 87.21875 441.371094 143.167969 C 441.371094 199.117188 486.734375 244.480469 542.683594 244.480469 C 598.632812 244.480469 643.996094 199.117188 643.996094 143.167969 C 643.996094 87.21875 598.632812 41.855469 542.683594 41.855469 Z M 542.683594 41.855469 " fill-opacity="1" fill-rule="nonzero"/></g><path fill="#a8d2f0" d="M 577.789062 214.796875 C 576.253906 214.796875 574.800781 213.953125 574.039062 212.507812 C 572.96875 210.441406 573.769531 207.890625 575.828125 206.808594 C 587.996094 200.460938 598.058594 190.800781 604.921875 178.871094 C 606.089844 176.871094 608.671875 176.1875 610.691406 177.320312 C 612.707031 178.484375 613.410156 181.058594 612.253906 183.09375 C 604.585938 196.398438 593.347656 207.191406 579.757812 214.273438 C 579.105469 214.644531 578.449219 214.796875 577.789062 214.796875 Z M 577.789062 214.796875 " fill-opacity="1" fill-rule="nonzero"/><path fill="#a8d2f0" d="M 466.699219 147.390625 C 464.367188 147.390625 462.476562 145.5 462.476562 143.167969 C 462.476562 98.945312 498.460938 62.960938 542.683594 62.960938 C 545.015625 62.960938 546.90625 64.851562 546.90625 67.183594 C 546.90625 69.515625 545.015625 71.40625 542.683594 71.40625 C 503.113281 71.40625 470.921875 103.597656 470.921875 143.167969 C 470.921875 145.5 469.027344 147.390625 466.699219 147.390625 Z M 466.699219 147.390625 " fill-opacity="1" fill-rule="nonzero"/><path fill="#a8d2f0" d="M 542.683594 198.046875 C 512.425781 198.046875 487.804688 173.425781 487.804688 143.167969 C 487.804688 112.910156 512.425781 88.289062 542.683594 88.289062 C 572.941406 88.289062 597.5625 112.910156 597.5625 143.167969 C 597.5625 173.425781 572.941406 198.046875 542.683594 198.046875 Z M 542.683594 96.734375 C 517.078125 96.734375 496.25 117.570312 496.25 143.167969 C 496.25 168.765625 517.078125 189.605469 542.683594 189.605469 C 568.289062 189.605469 589.117188 168.765625 589.117188 143.167969 C 589.117188 117.570312 568.289062 96.734375 542.683594 96.734375 Z M 542.683594 96.734375 " fill-opacity="1" fill-rule="nonzero"/><g clip-path="url(#469dfb938f)"><path fill="#ffffff" d="M 436.898438 46.402344 L 464.429688 46.402344 L 464.429688 47.609375 L 438.097656 47.609375 L 438.097656 74.082031 L 436.894531 74.082031 C 436.894531 64.855469 436.898438 55.621094 436.898438 46.402344 " fill-opacity="1" fill-rule="evenodd"/></g><g clip-path="url(#4350207c79)"><path fill="#ffffff" d="M 436.898438 240.511719 L 464.429688 240.511719 L 464.429688 239.316406 L 438.097656 239.316406 L 438.097656 212.835938 L 436.894531 212.835938 C 436.894531 222.0625 436.898438 231.292969 436.898438 240.511719 " fill-opacity="1" fill-rule="evenodd"/></g><g clip-path="url(#a78af9f687)"><path fill="#ffffff" d="M 645.742188 46.402344 L 618.210938 46.402344 L 618.210938 47.609375 L 644.546875 47.609375 L 644.546875 74.082031 L 645.746094 74.082031 C 645.746094 64.855469 645.742188 55.621094 645.742188 46.402344 " fill-opacity="1" fill-rule="evenodd"/></g><g clip-path="url(#84445c2c6a)"><path fill="#ffffff" d="M 645.742188 240.511719 L 618.210938 240.511719 L 618.210938 239.316406 L 644.546875 239.316406 L 644.546875 212.835938 L 645.746094 212.835938 C 645.746094 222.0625 645.742188 231.292969 645.742188 240.511719 " fill-opacity="1" fill-rule="evenodd"/></g><path fill="#ffffff" d="M 540.089844 168.90625 L 542.546875 168.90625 L 542.546875 118.011719 L 540.089844 118.011719 L 540.089844 168.90625 " fill-opacity="1" fill-rule="evenodd"/><path fill="#ffffff" d="M 515.871094 144.6875 L 515.871094 142.230469 L 566.765625 142.230469 L 566.765625 144.6875 L 515.871094 144.6875 " fill-opacity="1" fill-rule="evenodd"/></svg>