<svg xmlns="http://www.w3.org/2000/svg" xmlns:xlink="http://www.w3.org/1999/xlink" width="1000" zoomAndPan="magnify" viewBox="0 0 750 374.999991" height="500" preserveAspectRatio="xMidYMid meet" version="1.0"><defs><g/><clipPath id="6881bd87f8"><path d="M 407 47.171875 L 439 47.171875 L 439 80 L 407 80 Z M 407 47.171875 " clip-rule="nonzero"/></clipPath><clipPath id="01a29216fb"><path d="M 407.011719 239.554688 L 438.90625 239.554688 L 438.90625 271.96875 L 407.011719 271.96875 Z M 407.011719 239.554688 " clip-rule="nonzero"/></clipPath><clipPath id="a7a40471c8"><path d="M 615.691406 47.171875 L 647.605469 47.171875 L 647.605469 79.234375 L 615.691406 79.234375 Z M 615.691406 47.171875 " clip-rule="nonzero"/></clipPath><clipPath id="b7e28a0bb4"><path d="M 615.691406 239.554688 L 647.605469 239.554688 L 647.605469 271.96875 L 615.691406 271.96875 Z M 615.691406 239.554688 " clip-rule="nonzero"/></clipPath><clipPath id="00e60f0148"><path d="M 422.316406 62 L 630.84375 62 L 630.84375 271 L 422.316406 271 Z M 422.316406 62 " clip-rule="nonzero"/></clipPath><clipPath id="b0d36b4741"><path d="M 417.472656 67.457031 L 446 67.457031 L 446 96 L 417.472656 96 Z M 417.472656 67.457031 " clip-rule="nonzero"/></clipPath><clipPath id="4282c5056c"><path d="M 417.71875 238.0625 L 446 238.0625 L 446 266.210938 L 417.71875 266.210938 Z M 417.71875 238.0625 " clip-rule="nonzero"/></clipPath><clipPath id="20fcbd2284"><path d="M 603.757812 67.457031 L 632.207031 67.457031 L 632.207031 95.890625 L 603.757812 95.890625 Z M 603.757812 67.457031 " clip-rule="nonzero"/></clipPath><clipPath id="4b9fd223ca"><path d="M 603.757812 238.0625 L 632.207031 238.0625 L 632.207031 266.210938 L 603.757812 266.210938 Z M 603.757812 238.0625 " clip-rule="nonzero"/></clipPath><clipPath id="1faa138fad"><path d="M 253.085938 111.53125 L 332.613281 111.53125 L 332.613281 125.449219 L 253.085938 125.449219 Z M 253.085938 111.53125 " clip-rule="nonzero"/></clipPath></defs><g clip-path="url(#6881bd87f8)"><path fill="#3e7eaf" d="M 407.015625 47.171875 L 438.734375 47.171875 L 438.734375 48.566406 L 408.398438 48.566406 L 408.398438 79.222656 L 407.011719 79.222656 C 407.011719 68.539062 407.015625 57.84375 407.015625 47.171875 " fill-opacity="1" fill-rule="evenodd"/></g><g clip-path="url(#01a29216fb)"><path fill="#3e7eaf" d="M 407.015625 271.96875 L 438.734375 271.96875 L 438.734375 270.582031 L 408.398438 270.582031 L 408.398438 239.917969 L 407.011719 239.917969 C 407.011719 250.601562 407.015625 261.292969 407.015625 271.96875 " fill-opacity="1" fill-rule="evenodd"/></g><g clip-path="url(#a7a40471c8)"><path fill="#3e7eaf" d="M 647.597656 47.171875 L 615.882812 47.171875 L 615.882812 48.566406 L 646.21875 48.566406 L 646.21875 79.222656 L 647.605469 79.222656 C 647.605469 68.539062 647.597656 57.84375 647.597656 47.171875 " fill-opacity="1" fill-rule="evenodd"/></g><g clip-path="url(#b7e28a0bb4)"><path fill="#3e7eaf" d="M 647.597656 271.96875 L 615.882812 271.96875 L 615.882812 270.582031 L 646.21875 270.582031 L 646.21875 239.917969 L 647.605469 239.917969 C 647.605469 250.601562 647.597656 261.292969 647.597656 271.96875 " fill-opacity="1" fill-rule="evenodd"/></g><path fill="#3e7eaf" d="M 525.890625 189.039062 L 528.71875 189.039062 L 528.71875 130.101562 L 525.890625 130.101562 L 525.890625 189.039062 " fill-opacity="1" fill-rule="evenodd"/><path fill="#3e7eaf" d="M 497.992188 160.992188 L 497.992188 158.148438 L 556.621094 158.148438 L 556.621094 160.992188 L 497.992188 160.992188 " fill-opacity="1" fill-rule="evenodd"/><g clip-path="url(#00e60f0148)"><path fill="#a8d2f0" d="M 526.363281 71.457031 C 578.941406 71.457031 621.738281 114.253906 621.738281 166.832031 C 621.738281 219.410156 578.941406 262.210938 526.363281 262.210938 C 473.777344 262.210938 430.988281 219.410156 430.988281 166.832031 C 430.988281 114.253906 473.777344 71.457031 526.363281 71.457031 Z M 526.363281 62.785156 C 468.902344 62.785156 422.316406 109.375 422.316406 166.832031 C 422.316406 224.292969 468.902344 270.878906 526.363281 270.878906 C 583.824219 270.878906 630.410156 224.292969 630.410156 166.832031 C 630.410156 109.375 583.824219 62.785156 526.363281 62.785156 Z M 526.363281 62.785156 " fill-opacity="1" fill-rule="nonzero"/></g><path fill="#a8d2f0" d="M 562.414062 240.394531 C 560.835938 240.394531 559.347656 239.527344 558.566406 238.042969 C 557.464844 235.921875 558.289062 233.300781 560.40625 232.191406 C 572.898438 225.671875 583.234375 215.753906 590.28125 203.5 C 591.480469 201.445312 594.132812 200.742188 596.203125 201.90625 C 598.277344 203.101562 598.996094 205.746094 597.808594 207.835938 C 589.9375 221.5 578.394531 232.582031 564.4375 239.855469 C 563.769531 240.238281 563.09375 240.394531 562.414062 240.394531 Z M 562.414062 240.394531 " fill-opacity="1" fill-rule="nonzero"/><path fill="#a8d2f0" d="M 448.328125 171.167969 C 445.9375 171.167969 443.992188 169.226562 443.992188 166.832031 C 443.992188 121.417969 480.949219 84.464844 526.363281 84.464844 C 528.757812 84.464844 530.699219 86.40625 530.699219 88.796875 C 530.699219 91.191406 528.757812 93.132812 526.363281 93.132812 C 485.726562 93.132812 452.664062 126.195312 452.664062 166.832031 C 452.664062 169.226562 450.722656 171.167969 448.328125 171.167969 Z M 448.328125 171.167969 " fill-opacity="1" fill-rule="nonzero"/><path fill="#a8d2f0" d="M 526.363281 223.191406 C 495.289062 223.191406 470.003906 197.910156 470.003906 166.832031 C 470.003906 135.757812 495.289062 110.476562 526.363281 110.476562 C 557.4375 110.476562 582.722656 135.757812 582.722656 166.832031 C 582.722656 197.910156 557.4375 223.191406 526.363281 223.191406 Z M 526.363281 119.144531 C 500.066406 119.144531 478.675781 140.542969 478.675781 166.832031 C 478.675781 193.121094 500.066406 214.519531 526.363281 214.519531 C 552.660156 214.519531 574.050781 193.121094 574.050781 166.832031 C 574.050781 140.542969 552.660156 119.144531 526.363281 119.144531 Z M 526.363281 119.144531 " fill-opacity="1" fill-rule="nonzero"/><g clip-path="url(#b0d36b4741)"><path fill="#999999" d="M 417.722656 67.457031 L 446 67.457031 L 446 68.695312 L 418.953125 68.695312 L 418.953125 95.882812 L 417.71875 95.882812 C 417.71875 86.40625 417.722656 76.925781 417.722656 67.457031 " fill-opacity="1" fill-rule="evenodd"/></g><g clip-path="url(#4282c5056c)"><path fill="#999999" d="M 417.722656 266.804688 L 446 266.804688 L 446 265.574219 L 418.953125 265.574219 L 418.953125 238.382812 L 417.71875 238.382812 C 417.71875 247.855469 417.722656 257.335938 417.722656 266.804688 " fill-opacity="1" fill-rule="evenodd"/></g><g clip-path="url(#20fcbd2284)"><path fill="#999999" d="M 632.203125 67.457031 L 603.929688 67.457031 L 603.929688 68.695312 L 630.972656 68.695312 L 630.972656 95.882812 L 632.207031 95.882812 C 632.207031 86.40625 632.203125 76.925781 632.203125 67.457031 " fill-opacity="1" fill-rule="evenodd"/></g><g clip-path="url(#4b9fd223ca)"><path fill="#999999" d="M 632.203125 266.804688 L 603.929688 266.804688 L 603.929688 265.574219 L 630.972656 265.574219 L 630.972656 238.382812 L 632.207031 238.382812 C 632.207031 247.855469 632.203125 257.335938 632.203125 266.804688 " fill-opacity="1" fill-rule="evenodd"/></g><path fill="#999999" d="M 523.699219 193.265625 L 526.222656 193.265625 L 526.222656 141 L 523.699219 141 L 523.699219 193.265625 " fill-opacity="1" fill-rule="evenodd"/><path fill="#999999" d="M 498.828125 168.390625 L 498.828125 165.871094 L 551.09375 165.871094 L 551.09375 168.390625 L 498.828125 168.390625 " fill-opacity="1" fill-rule="evenodd"/><g fill="#737373" fill-opacity="1"><g transform="translate(77.422145, 237.420452)"><g><path d="M 11.203125 39.59375 L 11.203125 -95.796875 L 26.59375 -95.796875 L 30.59375 -85.796875 C 34.457031 -89.660156 38.890625 -92.660156 43.890625 -94.796875 C 48.890625 -96.929688 54.523438 -98 60.796875 -98 C 67.460938 -98 73.628906 -96.695312 79.296875 -94.09375 C 84.960938 -91.488281 89.859375 -87.921875 93.984375 -83.390625 C 98.117188 -78.859375 101.351562 -73.523438 103.6875 -67.390625 C 106.019531 -61.265625 107.1875 -54.734375 107.1875 -47.796875 C 107.1875 -40.859375 106.019531 -34.320312 103.6875 -28.1875 C 101.351562 -22.0625 98.117188 -16.734375 93.984375 -12.203125 C 89.859375 -7.671875 84.960938 -4.101562 79.296875 -1.5 C 73.628906 1.101562 67.460938 2.40625 60.796875 2.40625 C 54.265625 2.40625 48.53125 1.304688 43.59375 -0.890625 C 38.664062 -3.097656 34.332031 -6.269531 30.59375 -10.40625 L 30.59375 39.59375 Z M 59.203125 -80.390625 C 55.328125 -80.390625 51.65625 -79.753906 48.1875 -78.484375 C 44.726562 -77.222656 41.695312 -75.222656 39.09375 -72.484375 C 36.5 -69.753906 34.46875 -66.359375 33 -62.296875 C 31.53125 -58.234375 30.796875 -53.398438 30.796875 -47.796875 C 30.796875 -41.796875 31.53125 -36.695312 33 -32.5 C 34.46875 -28.300781 36.5 -24.898438 39.09375 -22.296875 C 41.695312 -19.703125 44.726562 -17.800781 48.1875 -16.59375 C 51.65625 -15.394531 55.328125 -14.796875 59.203125 -14.796875 C 63.066406 -14.796875 66.726562 -15.660156 70.1875 -17.390625 C 73.65625 -19.128906 76.65625 -21.5 79.1875 -24.5 C 81.726562 -27.5 83.726562 -31 85.1875 -35 C 86.65625 -39 87.390625 -43.265625 87.390625 -47.796875 C 87.390625 -52.328125 86.65625 -56.59375 85.1875 -60.59375 C 83.726562 -64.59375 81.726562 -68.054688 79.1875 -70.984375 C 76.65625 -73.921875 73.65625 -76.222656 70.1875 -77.890625 C 66.726562 -79.554688 63.066406 -80.390625 59.203125 -80.390625 Z M 59.203125 -80.390625 "/></g></g></g><g fill="#737373" fill-opacity="1"><g transform="translate(190.210654, 237.420452)"><g><path d="M 31.59375 -145.984375 L 31.59375 0 L 12.203125 0 L 12.203125 -145.984375 Z M 31.59375 -145.984375 "/></g></g></g><g fill="#737373" fill-opacity="1"><g transform="translate(232.606342, 237.420452)"><g><path d="M 101.984375 -95.796875 L 101.984375 0 L 85.59375 0 L 82.59375 -11 C 79.257812 -6.601562 74.992188 -3.269531 69.796875 -1 C 64.597656 1.269531 59.332031 2.40625 54 2.40625 C 47.332031 2.40625 41.097656 1.101562 35.296875 -1.5 C 29.492188 -4.101562 24.425781 -7.671875 20.09375 -12.203125 C 15.757812 -16.734375 12.328125 -22.0625 9.796875 -28.1875 C 7.265625 -34.320312 6 -40.859375 6 -47.796875 C 6 -54.734375 7.265625 -61.265625 9.796875 -67.390625 C 12.328125 -73.523438 15.757812 -78.859375 20.09375 -83.390625 C 24.425781 -87.921875 29.492188 -91.488281 35.296875 -94.09375 C 41.097656 -96.695312 47.332031 -98 54 -98 C 59.332031 -98 64.460938 -96.960938 69.390625 -94.890625 C 74.328125 -92.828125 78.726562 -89.59375 82.59375 -85.1875 L 85.59375 -95.796875 Z M 54 -14.796875 C 57.863281 -14.796875 61.523438 -15.660156 64.984375 -17.390625 C 68.453125 -19.128906 71.453125 -21.5 73.984375 -24.5 C 76.523438 -27.5 78.523438 -31 79.984375 -35 C 81.453125 -39 82.1875 -43.265625 82.1875 -47.796875 C 82.1875 -52.328125 81.453125 -56.59375 79.984375 -60.59375 C 78.523438 -64.59375 76.523438 -68.09375 73.984375 -71.09375 C 71.453125 -74.09375 68.453125 -76.457031 64.984375 -78.1875 C 61.523438 -79.925781 57.863281 -80.796875 54 -80.796875 C 50.132812 -80.796875 46.46875 -79.925781 43 -78.1875 C 39.53125 -76.457031 36.53125 -74.09375 34 -71.09375 C 31.46875 -68.09375 29.46875 -64.59375 28 -60.59375 C 26.53125 -56.59375 25.796875 -52.328125 25.796875 -47.796875 C 25.796875 -43.265625 26.53125 -39 28 -35 C 29.46875 -31 31.46875 -27.5 34 -24.5 C 36.53125 -21.5 39.53125 -19.128906 43 -17.390625 C 46.46875 -15.660156 50.132812 -14.796875 54 -14.796875 Z M 54 -14.796875 "/></g></g></g><g fill="#737373" fill-opacity="1"><g transform="translate(343.195091, 237.420452)"><g><path d="M 63.1875 -0.203125 C 57.726562 1.660156 52.332031 2.789062 47 3.1875 C 41.664062 3.59375 36.863281 2.828125 32.59375 0.890625 C 28.332031 -1.035156 24.867188 -4.429688 22.203125 -9.296875 C 19.535156 -14.160156 18.203125 -20.992188 18.203125 -29.796875 L 18.203125 -78.390625 L 4.203125 -78.390625 L 4.203125 -91.796875 L 18.203125 -95.796875 L 18.203125 -121.390625 L 37.59375 -121.390625 L 37.59375 -95.796875 L 63.59375 -95.796875 L 63.59375 -78.390625 L 37.59375 -78.390625 L 37.59375 -26.796875 C 37.59375 -23.597656 37.957031 -21.066406 38.6875 -19.203125 C 39.425781 -17.335938 40.660156 -15.9375 42.390625 -15 C 44.128906 -14.0625 46.394531 -13.59375 49.1875 -13.59375 C 51.988281 -13.59375 55.390625 -13.863281 59.390625 -14.40625 Z M 63.1875 -0.203125 "/></g></g></g><g fill="#000000" fill-opacity="1"><g transform="translate(411.593998, 237.420452)"><g/></g></g><g fill="#000000" fill-opacity="1"><g transform="translate(463.788667, 237.420452)"><g/></g></g><g fill="#000000" fill-opacity="1"><g transform="translate(515.983335, 237.420452)"><g/></g></g><g fill="#000000" fill-opacity="1"><g transform="translate(568.178004, 237.420452)"><g/></g></g><g fill="#000000" fill-opacity="1"><g transform="translate(620.372672, 237.420452)"><g/></g></g><g clip-path="url(#1faa138fad)"><path fill="#737373" d="M 329.835938 112.816406 C 329.382812 112.65625 328.777344 112.597656 328.160156 112.542969 C 328.203125 112.511719 328.21875 112.464844 328.210938 112.402344 C 327.867188 112.390625 327.722656 112.507812 327.347656 112.480469 C 327.464844 112.40625 327.371094 112.34375 327.1875 112.375 C 327.292969 112.285156 327.628906 112.339844 327.617188 112.441406 C 327.6875 112.433594 327.671875 112.371094 327.617188 112.371094 C 328.496094 112.417969 329.40625 112.273438 330.160156 112.421875 C 329.714844 112.117188 328.28125 112.125 327.617188 111.945312 C 327.65625 111.863281 327.949219 111.910156 327.886719 112.015625 C 327.957031 111.980469 328.085938 111.980469 328.101562 111.90625 C 328.6875 112.023438 329.355469 112.066406 329.9375 112.035156 C 330.605469 112.289062 331.507812 112.390625 331.890625 112.835938 C 331.914062 113.125 331.835938 113.277344 331.894531 113.507812 C 331.722656 113.808594 331.53125 114.097656 331.199219 114.292969 C 331.433594 114.582031 331.570312 114.800781 331.582031 115.101562 C 331.511719 115.160156 331.183594 115.234375 331.421875 115.28125 C 331.308594 115.328125 331.195312 115.371094 331.097656 115.425781 C 331.125 115.519531 331.398438 115.542969 331.261719 115.636719 C 331.074219 115.667969 331.054688 115.585938 330.882812 115.605469 C 330.925781 115.8125 331.320312 115.898438 331.429688 116.167969 C 331.558594 116.496094 331.316406 116.890625 331.328125 117.300781 C 330.800781 117.304688 330.988281 117.824219 330.25 117.765625 C 330.808594 117.992188 331.621094 118.226562 332.308594 118.246094 C 332.433594 118.390625 332.609375 118.769531 332.3125 118.882812 C 332.375 118.949219 332.453125 119.003906 332.53125 119.058594 C 332.417969 119.148438 331.980469 119.066406 332.152344 119.238281 C 331.613281 119.328125 330.917969 119.199219 330.535156 119.5 C 330.542969 119.589844 330.738281 119.554688 330.804688 119.605469 C 330.824219 119.695312 330.707031 119.8125 330.753906 119.886719 C 331.058594 119.960938 330.90625 120.019531 331.1875 120.027344 C 331.121094 120.125 331.019531 120.199219 330.8125 120.207031 C 330.976562 120.296875 331.277344 120.296875 331.351562 120.449219 C 330.738281 120.617188 330.46875 120.503906 329.785156 120.53125 C 330.765625 120.710938 331.636719 120.957031 332.4375 121.253906 C 332.449219 121.410156 332.460938 121.566406 332.332031 121.539062 C 332.433594 121.648438 332.515625 121.566406 332.601562 121.503906 C 332.660156 121.808594 332.691406 121.992188 332.984375 122.171875 C 332.878906 122.421875 332.503906 122.324219 332.175781 122.390625 C 332.226562 122.558594 332.296875 122.710938 332.558594 122.742188 C 332.386719 123.0625 331.46875 123.019531 331.15625 123.140625 C 331.28125 123.351562 331.617188 123.175781 331.914062 123.132812 C 331.839844 123.277344 332.03125 123.246094 332.023438 123.347656 C 331.0625 123.382812 330.976562 123.671875 329.96875 123.574219 C 329.945312 124.496094 329.234375 124.976562 328.851562 125.671875 C 328.382812 125.585938 328.175781 125.738281 327.933594 125.890625 C 327.910156 125.988281 328.230469 125.859375 328.207031 125.957031 C 327.785156 126.082031 327.191406 126.0625 326.585938 126.113281 C 326.023438 126.15625 325.546875 126.160156 325.179688 126.015625 C 322.398438 126.367188 320.21875 126.089844 317.292969 126.25 C 317.246094 126.136719 317.472656 126.203125 317.457031 126.109375 C 316.554688 126.105469 314.980469 126.371094 314.105469 126.167969 C 313.933594 126.203125 314.03125 126.054688 313.945312 126.027344 C 313.261719 126.050781 312.644531 126.277344 312.214844 126.039062 C 311.242188 125.984375 310.167969 126.277344 309.460938 126.0625 C 306.621094 126.109375 304.332031 126.238281 301.949219 125.976562 C 300.589844 125.910156 299.484375 126.003906 298.113281 125.933594 C 298.304688 125.761719 298.757812 125.761719 299.136719 125.710938 C 298.636719 125.652344 297.824219 125.640625 297.140625 125.691406 C 294.84375 125.855469 292.457031 125.804688 290.117188 125.707031 C 290.007812 125.628906 290.128906 125.667969 290.167969 125.601562 C 289.707031 125.488281 289.226562 125.648438 288.820312 125.683594 C 288.71875 125.617188 288.8125 125.59375 288.816406 125.503906 C 288.355469 125.460938 288.492188 125.613281 288.222656 125.652344 C 287.972656 125.683594 288.296875 125.558594 288.117188 125.546875 C 288 125.53125 288.011719 125.597656 288.007812 125.652344 C 287.390625 125.605469 286.894531 125.574219 286.171875 125.632812 C 285.949219 125.648438 286.210938 125.542969 286.0625 125.492188 C 285.152344 125.476562 283.863281 125.683594 282.875 125.585938 C 282.40625 125.539062 282.109375 125.589844 281.578125 125.59375 C 281.125 125.597656 280.683594 125.414062 280.171875 125.355469 C 279.753906 125.3125 279.132812 125.457031 278.5 125.371094 C 278.507812 125.316406 278.660156 125.355469 278.660156 125.296875 C 276.820312 125.363281 274.566406 125.371094 272.824219 125.554688 C 270.726562 125.417969 268.296875 125.761719 266.398438 125.742188 C 266.445312 125.6875 266.535156 125.664062 266.667969 125.667969 C 264.8125 125.527344 261.957031 125.503906 259.589844 125.578125 C 259.367188 125.601562 259.359375 125.761719 259.050781 125.726562 C 258.910156 125.929688 258.472656 125.941406 258.1875 126.015625 C 258.140625 126.027344 257.976562 126.121094 257.917969 126.121094 C 257.058594 126.160156 257.3125 125.503906 256.832031 125.175781 C 256.578125 125.28125 256.3125 125.320312 256.074219 125.179688 C 256.09375 124.957031 256.488281 124.976562 256.613281 124.824219 C 256.542969 124.773438 256.308594 124.710938 256.289062 124.824219 C 256.167969 124.753906 256.167969 124.640625 256.289062 124.578125 C 256.097656 124.558594 256.15625 124.703125 255.964844 124.6875 C 255.941406 124.613281 256 124.59375 256.019531 124.542969 C 255.84375 124.523438 255.851562 124.613281 255.746094 124.546875 C 255.734375 124.324219 255.761719 124.132812 255.960938 124.050781 C 254.875 123.824219 253.992188 123.25 253.085938 122.796875 C 253.109375 122.578125 253.386719 122.519531 253.40625 122.300781 C 254.070312 122.167969 254.496094 122.105469 255.296875 122.074219 C 255.425781 122.003906 255.195312 121.875 255.347656 121.789062 C 255.574219 121.824219 255.894531 121.8125 256.050781 121.644531 C 255.851562 121.59375 255.753906 121.632812 255.507812 121.574219 C 255.542969 121.492188 255.6875 121.480469 255.722656 121.398438 C 255.378906 121.195312 255.925781 120.878906 255.71875 120.652344 C 255.808594 120.570312 256.023438 120.710938 256.203125 120.6875 C 255.921875 120.578125 256.496094 120.621094 256.582031 120.542969 C 256.558594 120.46875 256.128906 120.621094 256.257812 120.472656 C 255.71875 120.527344 255.875 120.449219 255.449219 120.480469 C 255.511719 119.941406 256.34375 119.734375 257.222656 119.476562 C 257.097656 119.367188 256.894531 119.164062 257.003906 119.015625 C 256.929688 118.949219 256.699219 119.078125 256.570312 119.089844 C 256.570312 118.984375 256.710938 118.96875 256.730469 118.878906 C 256.605469 118.792969 256.632812 118.929688 256.460938 118.914062 C 256.621094 118.707031 256.914062 118.773438 257.164062 118.660156 C 256.917969 118.527344 256.660156 118.65625 256.351562 118.667969 C 256.375 118.613281 256.523438 118.636719 256.460938 118.523438 C 256.304688 118.519531 256.355469 118.644531 256.136719 118.597656 C 256.109375 118.488281 256.300781 118.515625 256.242188 118.386719 C 255.964844 118.425781 255.625 118.460938 255.378906 118.425781 C 255.378906 118.296875 255.566406 118.289062 255.648438 118.210938 C 255.46875 118.15625 255.34375 118.25 255.109375 118.25 C 255.085938 118.097656 255.085938 117.933594 255.484375 117.894531 C 255.464844 117.8125 255.492188 117.757812 255.535156 117.71875 C 255.308594 117.617188 255.210938 117.679688 254.726562 117.652344 C 254.640625 117.492188 254.949219 117.375 254.882812 117.261719 C 254.734375 117.003906 254.433594 117.054688 254.015625 117.054688 C 254.1875 116.914062 254.109375 116.820312 254.285156 116.699219 C 254.015625 116.59375 254.214844 116.464844 254.226562 116.242188 C 254.324219 116.234375 254.339844 116.285156 254.441406 116.273438 C 254.566406 115.894531 255.511719 116.046875 255.625 115.664062 C 255.375 115.59375 255.53125 115.253906 255.296875 115.171875 C 255.601562 114.707031 255.328125 113.875 256.316406 113.855469 C 256.257812 113.703125 256.082031 113.628906 255.773438 113.644531 C 255.824219 113.484375 255.65625 113.460938 255.449219 113.472656 C 255.535156 113.289062 255.566406 113.277344 255.339844 113.1875 C 255.582031 112.878906 255.519531 112.5625 255.761719 112.125 C 257.996094 112.246094 261.089844 112.242188 263.058594 112.351562 C 263.109375 112.351562 263.097656 112.308594 263.113281 112.28125 C 263.539062 112.476562 264.203125 112.363281 264.625 112.234375 C 264.59375 112.265625 264.566406 112.292969 264.570312 112.34375 C 264.808594 112.363281 264.875 112.28125 265.109375 112.304688 C 265.574219 112.378906 267.296875 112.15625 268.402344 112.136719 C 269.621094 112.117188 270.886719 111.949219 271.480469 111.796875 C 271.675781 112.097656 272.292969 111.980469 272.941406 111.960938 C 273.105469 111.945312 273.035156 112.089844 273.160156 112.101562 C 273.488281 111.945312 274.453125 112.1875 274.832031 111.984375 C 274.863281 111.890625 274.808594 111.855469 274.667969 111.878906 C 275.050781 111.753906 275.53125 111.890625 275.964844 111.796875 C 275.929688 111.761719 275.839844 111.761719 275.855469 111.691406 C 276.597656 111.730469 277.378906 111.847656 277.859375 112.03125 C 278.121094 111.957031 278.285156 112.066406 278.507812 112.097656 C 279.148438 112.179688 280.121094 112.019531 280.882812 112.007812 C 283.238281 111.980469 285.554688 112.171875 287.746094 112.027344 C 287.78125 112.0625 287.871094 112.0625 287.855469 112.132812 C 289.566406 112.105469 290.925781 111.980469 292.605469 111.992188 C 292.621094 111.898438 292.492188 111.902344 292.390625 111.886719 C 292.820312 111.851562 293.222656 111.980469 293.578125 112.054688 C 293.953125 111.808594 294.242188 112.089844 294.769531 112.082031 C 294.800781 112.160156 294.664062 112.132812 294.660156 112.191406 C 296.417969 112.3125 297.988281 111.761719 299.792969 112.046875 C 299.859375 111.984375 299.96875 111.949219 300.117188 111.9375 C 300.066406 112.164062 299.566406 112.097656 299.308594 112.191406 C 300.136719 112.195312 301.132812 112.082031 302.117188 112.277344 C 302.457031 111.945312 303.4375 112.144531 304.222656 112.046875 C 304.238281 112.105469 304.171875 112.109375 304.167969 112.15625 C 304.421875 112.152344 304.578125 112.214844 304.816406 112.222656 C 304.820312 112.101562 304.617188 112.117188 304.4375 112.117188 C 304.871094 111.941406 305.472656 112.246094 305.679688 111.894531 C 305.972656 111.9375 306.167969 111.9375 306.328125 111.820312 C 306.34375 111.878906 306.277344 111.882812 306.273438 111.925781 C 307.769531 112.125 309.472656 112.101562 311.40625 112.101562 C 311.382812 111.964844 311.035156 112.042969 310.917969 111.964844 C 312.753906 111.789062 314.824219 112.3125 316.699219 111.921875 C 316.433594 111.8125 315.824219 111.832031 315.617188 111.789062 C 315.507812 111.769531 315.265625 111.835938 315.242188 111.753906 C 315.855469 111.769531 316.070312 111.664062 316.589844 111.675781 C 316.675781 111.632812 316.703125 111.558594 316.859375 111.566406 C 316.742188 111.640625 316.886719 111.667969 316.863281 111.777344 C 317.09375 111.8125 317.160156 111.738281 317.292969 111.703125 C 317.589844 111.859375 317.863281 111.796875 318.210938 111.699219 C 320.085938 112.042969 322.480469 111.738281 324.585938 111.863281 C 324.078125 112.039062 323.324219 111.863281 322.859375 112.089844 C 322.953125 112.179688 323.394531 112.039062 323.292969 112.261719 C 323.527344 112.28125 323.511719 112.144531 323.726562 112.152344 C 323.796875 112.199219 323.796875 112.285156 323.726562 112.332031 C 324.164062 112.246094 324.980469 112.261719 325.511719 112.457031 C 325.347656 112.460938 325.1875 112.460938 325.023438 112.460938 C 326.148438 112.546875 327.882812 112.753906 329.1875 112.714844 C 329.304688 112.894531 329.414062 112.71875 329.835938 112.816406 Z M 290.988281 112.21875 C 291.257812 112.199219 291.539062 112.242188 291.3125 112.355469 C 291.53125 112.367188 291.589844 112.277344 291.746094 112.246094 C 291.515625 112.246094 291.617188 112.167969 291.6875 112.105469 C 291.480469 112.234375 291.019531 111.984375 290.988281 112.21875 Z M 317.242188 111.988281 C 317.175781 111.980469 317.132812 111.933594 317.132812 112.023438 C 317.410156 112.015625 317.675781 111.984375 317.835938 112.019531 C 317.820312 111.867188 317.367188 111.894531 317.242188 111.988281 Z M 302.339844 112.875 C 302.285156 113.007812 302.640625 112.949219 302.609375 112.875 C 302.472656 112.871094 302.441406 112.808594 302.339844 112.875 Z M 302.714844 112.945312 C 302.898438 112.921875 303.21875 112.988281 303.3125 112.90625 C 303.023438 112.886719 302.902344 112.789062 302.714844 112.945312 Z M 294.679688 114.632812 C 294.835938 114.738281 295.140625 114.605469 295.167969 114.734375 C 295.328125 114.734375 295.441406 114.628906 295.546875 114.695312 C 295.542969 114.648438 295.542969 114.601562 295.542969 114.554688 C 295.277344 114.59375 294.90625 114.566406 294.679688 114.632812 Z M 319.976562 116.355469 C 320.136719 116.320312 320.367188 116.328125 320.40625 116.210938 C 320.195312 116.214844 319.933594 116.1875 319.976562 116.355469 Z M 321.167969 116.59375 C 321.914062 116.527344 320.84375 116.492188 320.734375 116.597656 C 320.914062 116.589844 321.054688 116.605469 321.167969 116.59375 Z M 272.183594 118.902344 C 272.226562 118.933594 272.511719 118.9375 272.503906 118.832031 C 272.363281 118.832031 272.1875 118.8125 272.183594 118.902344 Z M 288.296875 120.839844 C 288.367188 120.707031 287.976562 120.699219 287.917969 120.769531 C 288.128906 120.734375 288.054688 120.890625 288.296875 120.839844 Z M 289.160156 120.832031 C 289.640625 120.894531 290.042969 120.828125 290.621094 120.855469 C 290.324219 120.804688 289.460938 120.695312 289.160156 120.832031 Z M 291.96875 120.847656 C 291.886719 120.84375 291.785156 120.851562 291.808594 120.777344 C 291.480469 120.851562 290.984375 120.773438 290.726562 120.785156 C 291.320312 120.902344 291.605469 120.925781 291.96875 120.847656 Z M 286.296875 121.03125 C 285.929688 121.085938 285.414062 120.9375 285.273438 121.074219 C 285.90625 121.167969 287.304688 121.207031 288.027344 121.050781 C 287.457031 121.015625 287.105469 120.933594 286.570312 120.992188 C 286.988281 121.121094 286.195312 120.949219 286.191406 120.960938 C 286.25 120.96875 286.273438 121 286.296875 121.03125 Z M 292.351562 120.984375 C 292.476562 120.984375 292.601562 120.984375 292.726562 120.980469 C 292.75 120.839844 292.359375 120.925781 292.351562 120.984375 Z M 288.191406 121.050781 C 288.15625 121.054688 288.125 121.058594 288.136719 121.085938 C 288.375 121.105469 289.109375 121.058594 288.515625 121.046875 C 288.402344 120.972656 288.339844 121.082031 288.242188 121.015625 C 288.238281 120.992188 288.234375 120.972656 288.1875 120.980469 C 288.191406 121.003906 288.191406 121.027344 288.191406 121.050781 Z M 285.113281 121.285156 C 285.058594 121.359375 284.910156 121.367188 284.84375 121.429688 C 286.019531 121.484375 288.027344 121.4375 289.382812 121.394531 C 288.183594 121.207031 286.53125 121.40625 285.113281 121.285156 Z M 323.914062 122.699219 C 324.46875 122.921875 325.273438 123.003906 325.96875 122.964844 C 325.257812 122.933594 324.480469 122.585938 323.914062 122.699219 Z M 321.539062 123.070312 C 321.710938 123.175781 322.171875 123.152344 322.347656 123.0625 C 322.335938 123.144531 322.363281 123.195312 322.457031 123.203125 C 322.550781 123.132812 322.417969 123.136719 322.511719 123.0625 C 322.210938 122.921875 321.894531 122.996094 321.539062 123.070312 Z M 320.566406 123.113281 C 320.78125 123.097656 320.867188 123.171875 321.105469 123.144531 C 321.089844 122.964844 320.570312 123.039062 320.566406 123.113281 Z M 325.269531 123.394531 C 325.445312 123.425781 325.605469 123.421875 325.917969 123.425781 C 325.910156 123.265625 325.449219 123.367188 325.269531 123.394531 Z M 277.144531 125.027344 C 277.011719 125.085938 276.621094 124.960938 276.441406 125.066406 C 276.5625 125.171875 277.066406 125.152344 277.144531 125.027344 Z M 300.648438 125.207031 C 300.449219 125.234375 300.347656 125.121094 300.214844 125.210938 C 300.414062 125.371094 300.867188 125.320312 301.242188 125.308594 C 301.847656 125.289062 302.421875 125.199219 303.023438 125.261719 C 302.449219 125.066406 301.09375 125.175781 300.648438 125.207031 Z M 303.886719 125.21875 C 304.125 125.261719 304.683594 125.222656 305.023438 125.140625 C 304.625 125.179688 303.945312 125.007812 303.886719 125.21875 Z M 307.183594 125.121094 C 307.171875 125.28125 306.65625 125.109375 306.644531 125.269531 C 306.914062 125.324219 307.109375 125.277344 307.347656 125.226562 C 307.375 125.320312 307.390625 125.347656 307.511719 125.4375 C 308.632812 125.128906 309.722656 125.625 310.804688 125.308594 C 309.613281 125.15625 308.371094 125.328125 307.183594 125.121094 Z M 297.242188 125.335938 C 296.96875 125.339844 296.621094 125.1875 296.488281 125.414062 C 297.460938 125.472656 298.425781 125.445312 299.40625 125.25 C 298.703125 125.25 297.921875 125.335938 297.242188 125.335938 Z M 297.242188 125.335938 " fill-opacity="1" fill-rule="evenodd"/></g><g fill="#737373" fill-opacity="1"><g transform="translate(166.519629, 316.263846)"><g><path d="M 10.9375 -31.625 L 6.953125 -31.625 L 6.953125 3.34375 L 10.9375 3.34375 L 10.9375 6.53125 L 3.046875 6.53125 L 3.046875 -34.8125 L 10.9375 -34.8125 Z M 10.9375 -31.625 "/></g></g></g><g fill="#737373" fill-opacity="1"><g transform="translate(181.093058, 316.263846)"><g/></g></g><g fill="#737373" fill-opacity="1"><g transform="translate(194.913375, 316.263846)"><g><path d="M 16.109375 -6 C 16.109375 -7.050781 15.710938 -7.863281 14.921875 -8.4375 C 14.140625 -9.019531 12.765625 -9.519531 10.796875 -9.9375 C 8.835938 -10.351562 7.285156 -10.851562 6.140625 -11.4375 C 4.992188 -12.03125 4.144531 -12.726562 3.59375 -13.53125 C 3.039062 -14.34375 2.765625 -15.304688 2.765625 -16.421875 C 2.765625 -18.273438 3.546875 -19.84375 5.109375 -21.125 C 6.679688 -22.40625 8.6875 -23.046875 11.125 -23.046875 C 13.695312 -23.046875 15.78125 -22.382812 17.375 -21.0625 C 18.96875 -19.738281 19.765625 -18.046875 19.765625 -15.984375 L 15.875 -15.984375 C 15.875 -17.046875 15.421875 -17.957031 14.515625 -18.71875 C 13.617188 -19.488281 12.488281 -19.875 11.125 -19.875 C 9.71875 -19.875 8.613281 -19.566406 7.8125 -18.953125 C 7.019531 -18.335938 6.625 -17.535156 6.625 -16.546875 C 6.625 -15.609375 6.992188 -14.898438 7.734375 -14.421875 C 8.472656 -13.953125 9.804688 -13.5 11.734375 -13.0625 C 13.671875 -12.632812 15.238281 -12.117188 16.4375 -11.515625 C 17.632812 -10.921875 18.523438 -10.203125 19.109375 -9.359375 C 19.691406 -8.515625 19.984375 -7.488281 19.984375 -6.28125 C 19.984375 -4.257812 19.171875 -2.632812 17.546875 -1.40625 C 15.929688 -0.1875 13.832031 0.421875 11.25 0.421875 C 9.4375 0.421875 7.832031 0.101562 6.4375 -0.53125 C 5.039062 -1.175781 3.945312 -2.070312 3.15625 -3.21875 C 2.375 -4.375 1.984375 -5.625 1.984375 -6.96875 L 5.859375 -6.96875 C 5.929688 -5.664062 6.453125 -4.632812 7.421875 -3.875 C 8.390625 -3.113281 9.664062 -2.734375 11.25 -2.734375 C 12.71875 -2.734375 13.894531 -3.03125 14.78125 -3.625 C 15.664062 -4.21875 16.109375 -5.007812 16.109375 -6 Z M 16.109375 -6 "/></g></g></g><g fill="#737373" fill-opacity="1"><g transform="translate(220.218657, 316.263846)"><g><path d="M 6.796875 -19.890625 C 8.515625 -21.992188 10.75 -23.046875 13.5 -23.046875 C 18.28125 -23.046875 20.691406 -20.347656 20.734375 -14.953125 L 20.734375 0 L 16.859375 0 L 16.859375 -14.984375 C 16.847656 -16.609375 16.472656 -17.8125 15.734375 -18.59375 C 15.003906 -19.375 13.867188 -19.765625 12.328125 -19.765625 C 11.066406 -19.765625 9.960938 -19.429688 9.015625 -18.765625 C 8.066406 -18.097656 7.328125 -17.21875 6.796875 -16.125 L 6.796875 0 L 2.921875 0 L 2.921875 -32.140625 L 6.796875 -32.140625 Z M 6.796875 -19.890625 "/></g></g></g><g fill="#737373" fill-opacity="1"><g transform="translate(247.030171, 316.263846)"><g><path d="M 16.90625 0 C 16.675781 -0.445312 16.492188 -1.242188 16.359375 -2.390625 C 14.554688 -0.515625 12.410156 0.421875 9.921875 0.421875 C 7.679688 0.421875 5.847656 -0.207031 4.421875 -1.46875 C 2.992188 -2.738281 2.28125 -4.34375 2.28125 -6.28125 C 2.28125 -8.632812 3.175781 -10.460938 4.96875 -11.765625 C 6.757812 -13.066406 9.28125 -13.71875 12.53125 -13.71875 L 16.296875 -13.71875 L 16.296875 -15.5 C 16.296875 -16.851562 15.890625 -17.929688 15.078125 -18.734375 C 14.273438 -19.535156 13.082031 -19.9375 11.5 -19.9375 C 10.125 -19.9375 8.96875 -19.585938 8.03125 -18.890625 C 7.09375 -18.191406 6.625 -17.347656 6.625 -16.359375 L 2.734375 -16.359375 C 2.734375 -17.484375 3.132812 -18.570312 3.9375 -19.625 C 4.738281 -20.6875 5.828125 -21.519531 7.203125 -22.125 C 8.578125 -22.738281 10.085938 -23.046875 11.734375 -23.046875 C 14.335938 -23.046875 16.378906 -22.394531 17.859375 -21.09375 C 19.335938 -19.789062 20.109375 -17.992188 20.171875 -15.703125 L 20.171875 -5.296875 C 20.171875 -3.210938 20.4375 -1.554688 20.96875 -0.328125 L 20.96875 0 Z M 10.484375 -2.953125 C 11.691406 -2.953125 12.835938 -3.265625 13.921875 -3.890625 C 15.015625 -4.515625 15.804688 -5.332031 16.296875 -6.34375 L 16.296875 -10.984375 L 13.265625 -10.984375 C 8.523438 -10.984375 6.15625 -9.59375 6.15625 -6.8125 C 6.15625 -5.601562 6.554688 -4.65625 7.359375 -3.96875 C 8.171875 -3.289062 9.210938 -2.953125 10.484375 -2.953125 Z M 10.484375 -2.953125 "/></g></g></g><g fill="#737373" fill-opacity="1"><g transform="translate(273.548808, 316.263846)"><g><path d="M 13.875 -19.15625 C 13.28125 -19.257812 12.644531 -19.3125 11.96875 -19.3125 C 9.425781 -19.3125 7.703125 -18.226562 6.796875 -16.0625 L 6.796875 0 L 2.921875 0 L 2.921875 -22.640625 L 6.6875 -22.640625 L 6.75 -20.015625 C 8.019531 -22.035156 9.820312 -23.046875 12.15625 -23.046875 C 12.90625 -23.046875 13.476562 -22.953125 13.875 -22.765625 Z M 13.875 -19.15625 "/></g></g></g><g fill="#737373" fill-opacity="1"><g transform="translate(291.26021, 316.263846)"><g><path d="M 12.328125 0.421875 C 9.253906 0.421875 6.753906 -0.582031 4.828125 -2.59375 C 2.910156 -4.613281 1.953125 -7.3125 1.953125 -10.6875 L 1.953125 -11.40625 C 1.953125 -13.644531 2.378906 -15.644531 3.234375 -17.40625 C 4.085938 -19.175781 5.285156 -20.554688 6.828125 -21.546875 C 8.367188 -22.546875 10.039062 -23.046875 11.84375 -23.046875 C 14.78125 -23.046875 17.066406 -22.078125 18.703125 -20.140625 C 20.335938 -18.203125 21.15625 -15.425781 21.15625 -11.8125 L 21.15625 -10.203125 L 5.8125 -10.203125 C 5.875 -7.972656 6.523438 -6.171875 7.765625 -4.796875 C 9.015625 -3.421875 10.601562 -2.734375 12.53125 -2.734375 C 13.894531 -2.734375 15.050781 -3.015625 16 -3.578125 C 16.945312 -4.140625 17.78125 -4.878906 18.5 -5.796875 L 20.859375 -3.953125 C 18.960938 -1.035156 16.117188 0.421875 12.328125 0.421875 Z M 11.84375 -19.875 C 10.28125 -19.875 8.96875 -19.304688 7.90625 -18.171875 C 6.84375 -17.035156 6.1875 -15.441406 5.9375 -13.390625 L 17.28125 -13.390625 L 17.28125 -13.6875 C 17.164062 -15.644531 16.632812 -17.164062 15.6875 -18.25 C 14.738281 -19.332031 13.457031 -19.875 11.84375 -19.875 Z M 11.84375 -19.875 "/></g></g></g><g fill="#737373" fill-opacity="1"><g transform="translate(317.172173, 316.263846)"><g/></g></g><g fill="#737373" fill-opacity="1"><g transform="translate(330.992493, 316.263846)"><g><path d="M 10.328125 -5.671875 L 15.609375 -22.640625 L 19.75 -22.640625 L 10.640625 3.5 C 9.234375 7.257812 7 9.140625 3.9375 9.140625 L 3.203125 9.078125 L 1.75 8.8125 L 1.75 5.671875 L 2.796875 5.75 C 4.109375 5.75 5.128906 5.484375 5.859375 4.953125 C 6.597656 4.421875 7.203125 3.453125 7.671875 2.046875 L 8.53125 -0.25 L 0.453125 -22.640625 L 4.6875 -22.640625 Z M 10.328125 -5.671875 "/></g></g></g><g fill="#737373" fill-opacity="1"><g transform="translate(354.477759, 316.263846)"><g><path d="M 1.90625 -11.53125 C 1.90625 -13.75 2.335938 -15.742188 3.203125 -17.515625 C 4.078125 -19.285156 5.289062 -20.648438 6.84375 -21.609375 C 8.40625 -22.566406 10.179688 -23.046875 12.171875 -23.046875 C 15.253906 -23.046875 17.75 -21.976562 19.65625 -19.84375 C 21.5625 -17.71875 22.515625 -14.882812 22.515625 -11.34375 L 22.515625 -11.0625 C 22.515625 -8.863281 22.09375 -6.890625 21.25 -5.140625 C 20.40625 -3.390625 19.195312 -2.023438 17.625 -1.046875 C 16.050781 -0.0664062 14.25 0.421875 12.21875 0.421875 C 9.144531 0.421875 6.65625 -0.644531 4.75 -2.78125 C 2.851562 -4.914062 1.90625 -7.738281 1.90625 -11.25 Z M 5.796875 -11.0625 C 5.796875 -8.550781 6.375 -6.535156 7.53125 -5.015625 C 8.695312 -3.492188 10.257812 -2.734375 12.21875 -2.734375 C 14.1875 -2.734375 15.75 -3.503906 16.90625 -5.046875 C 18.0625 -6.585938 18.640625 -8.75 18.640625 -11.53125 C 18.640625 -14.007812 18.050781 -16.019531 16.875 -17.5625 C 15.695312 -19.101562 14.128906 -19.875 12.171875 -19.875 C 10.265625 -19.875 8.722656 -19.113281 7.546875 -17.59375 C 6.378906 -16.070312 5.796875 -13.894531 5.796875 -11.0625 Z M 5.796875 -11.0625 "/></g></g></g><g fill="#737373" fill-opacity="1"><g transform="translate(382.126053, 316.263846)"><g><path d="M 16.90625 -2.234375 C 15.394531 -0.460938 13.179688 0.421875 10.265625 0.421875 C 7.859375 0.421875 6.019531 -0.273438 4.75 -1.671875 C 3.488281 -3.078125 2.851562 -5.15625 2.84375 -7.90625 L 2.84375 -22.640625 L 6.71875 -22.640625 L 6.71875 -8.015625 C 6.71875 -4.578125 8.113281 -2.859375 10.90625 -2.859375 C 13.851562 -2.859375 15.816406 -3.960938 16.796875 -6.171875 L 16.796875 -22.640625 L 20.671875 -22.640625 L 20.671875 0 L 16.984375 0 Z M 16.90625 -2.234375 "/></g></g></g><g fill="#737373" fill-opacity="1"><g transform="translate(408.958487, 316.263846)"><g><path d="M 13.875 -19.15625 C 13.28125 -19.257812 12.644531 -19.3125 11.96875 -19.3125 C 9.425781 -19.3125 7.703125 -18.226562 6.796875 -16.0625 L 6.796875 0 L 2.921875 0 L 2.921875 -22.640625 L 6.6875 -22.640625 L 6.75 -20.015625 C 8.019531 -22.035156 9.820312 -23.046875 12.15625 -23.046875 C 12.90625 -23.046875 13.476562 -22.953125 13.875 -22.765625 Z M 13.875 -19.15625 "/></g></g></g><g fill="#737373" fill-opacity="1"><g transform="translate(426.669889, 316.263846)"><g/></g></g><g fill="#737373" fill-opacity="1"><g transform="translate(440.490208, 316.263846)"><g><path d="M 6.5625 -22.640625 L 6.671875 -20.125 C 8.328125 -22.070312 10.566406 -23.046875 13.390625 -23.046875 C 16.554688 -23.046875 18.710938 -21.832031 19.859375 -19.40625 C 20.609375 -20.5 21.585938 -21.378906 22.796875 -22.046875 C 24.003906 -22.710938 25.425781 -23.046875 27.0625 -23.046875 C 32.03125 -23.046875 34.554688 -20.421875 34.640625 -15.171875 L 34.640625 0 L 30.765625 0 L 30.765625 -14.9375 C 30.765625 -16.550781 30.394531 -17.757812 29.65625 -18.5625 C 28.925781 -19.363281 27.6875 -19.765625 25.9375 -19.765625 C 24.5 -19.765625 23.304688 -19.335938 22.359375 -18.484375 C 21.410156 -17.628906 20.859375 -16.472656 20.703125 -15.015625 L 20.703125 0 L 16.8125 0 L 16.8125 -14.828125 C 16.8125 -18.117188 15.203125 -19.765625 11.984375 -19.765625 C 9.441406 -19.765625 7.707031 -18.6875 6.78125 -16.53125 L 6.78125 0 L 2.90625 0 L 2.90625 -22.640625 Z M 6.5625 -22.640625 "/></g></g></g><g fill="#737373" fill-opacity="1"><g transform="translate(481.255228, 316.263846)"><g><path d="M 12.328125 0.421875 C 9.253906 0.421875 6.753906 -0.582031 4.828125 -2.59375 C 2.910156 -4.613281 1.953125 -7.3125 1.953125 -10.6875 L 1.953125 -11.40625 C 1.953125 -13.644531 2.378906 -15.644531 3.234375 -17.40625 C 4.085938 -19.175781 5.285156 -20.554688 6.828125 -21.546875 C 8.367188 -22.546875 10.039062 -23.046875 11.84375 -23.046875 C 14.78125 -23.046875 17.066406 -22.078125 18.703125 -20.140625 C 20.335938 -18.203125 21.15625 -15.425781 21.15625 -11.8125 L 21.15625 -10.203125 L 5.8125 -10.203125 C 5.875 -7.972656 6.523438 -6.171875 7.765625 -4.796875 C 9.015625 -3.421875 10.601562 -2.734375 12.53125 -2.734375 C 13.894531 -2.734375 15.050781 -3.015625 16 -3.578125 C 16.945312 -4.140625 17.78125 -4.878906 18.5 -5.796875 L 20.859375 -3.953125 C 18.960938 -1.035156 16.117188 0.421875 12.328125 0.421875 Z M 11.84375 -19.875 C 10.28125 -19.875 8.96875 -19.304688 7.90625 -18.171875 C 6.84375 -17.035156 6.1875 -15.441406 5.9375 -13.390625 L 17.28125 -13.390625 L 17.28125 -13.6875 C 17.164062 -15.644531 16.632812 -17.164062 15.6875 -18.25 C 14.738281 -19.332031 13.457031 -19.875 11.84375 -19.875 Z M 11.84375 -19.875 "/></g></g></g><g fill="#737373" fill-opacity="1"><g transform="translate(507.167191, 316.263846)"><g><path d="M 16.90625 0 C 16.675781 -0.445312 16.492188 -1.242188 16.359375 -2.390625 C 14.554688 -0.515625 12.410156 0.421875 9.921875 0.421875 C 7.679688 0.421875 5.847656 -0.207031 4.421875 -1.46875 C 2.992188 -2.738281 2.28125 -4.34375 2.28125 -6.28125 C 2.28125 -8.632812 3.175781 -10.460938 4.96875 -11.765625 C 6.757812 -13.066406 9.28125 -13.71875 12.53125 -13.71875 L 16.296875 -13.71875 L 16.296875 -15.5 C 16.296875 -16.851562 15.890625 -17.929688 15.078125 -18.734375 C 14.273438 -19.535156 13.082031 -19.9375 11.5 -19.9375 C 10.125 -19.9375 8.96875 -19.585938 8.03125 -18.890625 C 7.09375 -18.191406 6.625 -17.347656 6.625 -16.359375 L 2.734375 -16.359375 C 2.734375 -17.484375 3.132812 -18.570312 3.9375 -19.625 C 4.738281 -20.6875 5.828125 -21.519531 7.203125 -22.125 C 8.578125 -22.738281 10.085938 -23.046875 11.734375 -23.046875 C 14.335938 -23.046875 16.378906 -22.394531 17.859375 -21.09375 C 19.335938 -19.789062 20.109375 -17.992188 20.171875 -15.703125 L 20.171875 -5.296875 C 20.171875 -3.210938 20.4375 -1.554688 20.96875 -0.328125 L 20.96875 0 Z M 10.484375 -2.953125 C 11.691406 -2.953125 12.835938 -3.265625 13.921875 -3.890625 C 15.015625 -4.515625 15.804688 -5.332031 16.296875 -6.34375 L 16.296875 -10.984375 L 13.265625 -10.984375 C 8.523438 -10.984375 6.15625 -9.59375 6.15625 -6.8125 C 6.15625 -5.601562 6.554688 -4.65625 7.359375 -3.96875 C 8.171875 -3.289062 9.210938 -2.953125 10.484375 -2.953125 Z M 10.484375 -2.953125 "/></g></g></g><g fill="#737373" fill-opacity="1"><g transform="translate(533.685828, 316.263846)"><g><path d="M 7.140625 0 L 3.265625 0 L 3.265625 -32.140625 L 7.140625 -32.140625 Z M 7.140625 0 "/></g></g></g><g fill="#737373" fill-opacity="1"><g transform="translate(547.296949, 316.263846)"><g/></g></g><g fill="#737373" fill-opacity="1"><g transform="translate(561.117246, 316.263846)"><g><path d="M 0.1875 -34.8125 L 8.09375 -34.8125 L 8.09375 6.53125 L 0.1875 6.53125 L 0.1875 3.34375 L 4.21875 3.34375 L 4.21875 -31.625 L 0.1875 -31.625 Z M 0.1875 -34.8125 "/></g></g></g></svg>