<svg xmlns="http://www.w3.org/2000/svg" xmlns:xlink="http://www.w3.org/1999/xlink" width="800" zoomAndPan="magnify" viewBox="0 0 600 307.91998" height="400" preserveAspectRatio="xMidYMid meet" version="1.0"><defs><g/><clipPath id="eb66268de5"><path d="M 341.121094 24.71875 L 374 24.71875 L 374 58 L 341.121094 58 Z M 341.121094 24.71875 " clip-rule="nonzero"/></clipPath><clipPath id="550b434488"><path d="M 341.390625 219.03125 L 373.601562 219.03125 L 373.601562 251.765625 L 341.390625 251.765625 Z M 341.390625 219.03125 " clip-rule="nonzero"/></clipPath><clipPath id="249a48ee96"><path d="M 552.15625 24.71875 L 584.386719 24.71875 L 584.386719 57.105469 L 552.15625 57.105469 Z M 552.15625 24.71875 " clip-rule="nonzero"/></clipPath><clipPath id="966122a151"><path d="M 552.15625 219.03125 L 584.386719 219.03125 L 584.386719 251.765625 L 552.15625 251.765625 Z M 552.15625 219.03125 " clip-rule="nonzero"/></clipPath><clipPath id="23565caef0"><path d="M 356.847656 40 L 567.457031 40 L 567.457031 251 L 356.847656 251 Z M 356.847656 40 " clip-rule="nonzero"/></clipPath><clipPath id="2ad6711221"><path d="M 352 45.210938 L 381 45.210938 L 381 74 L 352 74 Z M 352 45.210938 " clip-rule="nonzero"/></clipPath><clipPath id="29de430ed1"><path d="M 352.203125 217.519531 L 380.921875 217.519531 L 380.921875 245.949219 L 352.203125 245.949219 Z M 352.203125 217.519531 " clip-rule="nonzero"/></clipPath><clipPath id="7120c763cf"><path d="M 540.101562 45.210938 L 568.835938 45.210938 L 568.835938 73.929688 L 540.101562 73.929688 Z M 540.101562 45.210938 " clip-rule="nonzero"/></clipPath><clipPath id="3fb8b81dc4"><path d="M 540.101562 217.519531 L 568.835938 217.519531 L 568.835938 245.949219 L 540.101562 245.949219 Z M 540.101562 217.519531 " clip-rule="nonzero"/></clipPath><clipPath id="4aa4d53cc6"><path d="M 185.925781 89.722656 L 266.546875 89.722656 L 266.546875 104.53125 L 185.925781 104.53125 Z M 185.925781 89.722656 " clip-rule="nonzero"/></clipPath></defs><g clip-path="url(#eb66268de5)"><path fill="#3e7eaf" d="M 341.394531 24.71875 L 373.425781 24.71875 L 373.425781 26.128906 L 342.789062 26.128906 L 342.789062 57.09375 L 341.390625 57.09375 C 341.390625 46.300781 341.394531 35.503906 341.394531 24.71875 " fill-opacity="1" fill-rule="evenodd"/></g><g clip-path="url(#550b434488)"><path fill="#3e7eaf" d="M 341.394531 251.765625 L 373.425781 251.765625 L 373.425781 250.367188 L 342.789062 250.367188 L 342.789062 219.394531 L 341.390625 219.394531 C 341.390625 230.183594 341.394531 240.984375 341.394531 251.765625 " fill-opacity="1" fill-rule="evenodd"/></g><g clip-path="url(#249a48ee96)"><path fill="#3e7eaf" d="M 584.378906 24.71875 L 552.351562 24.71875 L 552.351562 26.128906 L 582.988281 26.128906 L 582.988281 57.09375 L 584.386719 57.09375 C 584.386719 46.300781 584.378906 35.503906 584.378906 24.71875 " fill-opacity="1" fill-rule="evenodd"/></g><g clip-path="url(#966122a151)"><path fill="#3e7eaf" d="M 584.378906 251.765625 L 552.351562 251.765625 L 552.351562 250.367188 L 582.988281 250.367188 L 582.988281 219.394531 L 584.386719 219.394531 C 584.386719 230.183594 584.378906 240.984375 584.378906 251.765625 " fill-opacity="1" fill-rule="evenodd"/></g><path fill="#3e7eaf" d="M 461.457031 168.007812 L 464.3125 168.007812 L 464.3125 108.480469 L 461.457031 108.480469 L 461.457031 168.007812 " fill-opacity="1" fill-rule="evenodd"/><path fill="#3e7eaf" d="M 433.28125 139.679688 L 433.28125 136.808594 L 492.492188 136.808594 L 492.492188 139.679688 L 433.28125 139.679688 " fill-opacity="1" fill-rule="evenodd"/><g clip-path="url(#23565caef0)"><path fill="#a8d2f0" d="M 461.933594 49.25 C 515.039062 49.25 558.261719 92.476562 558.261719 145.578125 C 558.261719 198.683594 515.039062 241.910156 461.933594 241.910156 C 408.820312 241.910156 365.605469 198.683594 365.605469 145.578125 C 365.605469 92.476562 408.820312 49.25 461.933594 49.25 Z M 461.933594 40.492188 C 403.898438 40.492188 356.847656 87.546875 356.847656 145.578125 C 356.847656 203.613281 403.898438 250.667969 461.933594 250.667969 C 519.96875 250.667969 567.019531 203.613281 567.019531 145.578125 C 567.019531 87.546875 519.96875 40.492188 461.933594 40.492188 Z M 461.933594 40.492188 " fill-opacity="1" fill-rule="nonzero"/></g><path fill="#a8d2f0" d="M 498.347656 219.875 C 496.753906 219.875 495.246094 219 494.457031 217.503906 C 493.347656 215.359375 494.179688 212.710938 496.316406 211.59375 C 508.933594 205.007812 519.371094 194.988281 526.492188 182.613281 C 527.699219 180.539062 530.378906 179.828125 532.472656 181.003906 C 534.566406 182.210938 535.292969 184.882812 534.09375 186.992188 C 526.140625 200.792969 514.484375 211.984375 500.386719 219.332031 C 499.710938 219.71875 499.03125 219.875 498.347656 219.875 Z M 498.347656 219.875 " fill-opacity="1" fill-rule="nonzero"/><path fill="#a8d2f0" d="M 383.117188 149.957031 C 380.703125 149.957031 378.738281 147.996094 378.738281 145.578125 C 378.738281 99.710938 416.0625 62.386719 461.933594 62.386719 C 464.351562 62.386719 466.3125 64.347656 466.3125 66.765625 C 466.3125 69.183594 464.351562 71.144531 461.933594 71.144531 C 420.890625 71.144531 387.496094 104.535156 387.496094 145.578125 C 387.496094 147.996094 385.535156 149.957031 383.117188 149.957031 Z M 383.117188 149.957031 " fill-opacity="1" fill-rule="nonzero"/><path fill="#a8d2f0" d="M 461.933594 202.5 C 430.546875 202.5 405.011719 176.964844 405.011719 145.578125 C 405.011719 114.195312 430.546875 88.65625 461.933594 88.65625 C 493.320312 88.65625 518.855469 114.195312 518.855469 145.578125 C 518.855469 176.964844 493.320312 202.5 461.933594 202.5 Z M 461.933594 97.414062 C 435.375 97.414062 413.769531 119.027344 413.769531 145.578125 C 413.769531 172.132812 435.375 193.746094 461.933594 193.746094 C 488.496094 193.746094 510.097656 172.132812 510.097656 145.578125 C 510.097656 119.027344 488.496094 97.414062 461.933594 97.414062 Z M 461.933594 97.414062 " fill-opacity="1" fill-rule="nonzero"/><g clip-path="url(#2ad6711221)"><path fill="#999999" d="M 352.207031 45.210938 L 380.765625 45.210938 L 380.765625 46.460938 L 353.449219 46.460938 L 353.449219 73.917969 L 352.203125 73.917969 C 352.203125 64.347656 352.207031 54.773438 352.207031 45.210938 " fill-opacity="1" fill-rule="evenodd"/></g><g clip-path="url(#29de430ed1)"><path fill="#999999" d="M 352.207031 246.550781 L 380.765625 246.550781 L 380.765625 245.308594 L 353.449219 245.308594 L 353.449219 217.84375 L 352.203125 217.84375 C 352.203125 227.410156 352.207031 236.988281 352.207031 246.550781 " fill-opacity="1" fill-rule="evenodd"/></g><g clip-path="url(#7120c763cf)"><path fill="#999999" d="M 568.832031 45.210938 L 540.277344 45.210938 L 540.277344 46.460938 L 567.589844 46.460938 L 567.589844 73.917969 L 568.835938 73.917969 C 568.835938 64.347656 568.832031 54.773438 568.832031 45.210938 " fill-opacity="1" fill-rule="evenodd"/></g><g clip-path="url(#3fb8b81dc4)"><path fill="#999999" d="M 568.832031 246.550781 L 540.277344 246.550781 L 540.277344 245.308594 L 567.589844 245.308594 L 567.589844 217.84375 L 568.835938 217.84375 C 568.835938 227.410156 568.832031 236.988281 568.832031 246.550781 " fill-opacity="1" fill-rule="evenodd"/></g><path fill="#999999" d="M 459.242188 172.277344 L 461.792969 172.277344 L 461.792969 119.488281 L 459.242188 119.488281 L 459.242188 172.277344 " fill-opacity="1" fill-rule="evenodd"/><path fill="#999999" d="M 434.125 147.152344 L 434.125 144.609375 L 486.914062 144.609375 L 486.914062 147.152344 L 434.125 147.152344 " fill-opacity="1" fill-rule="evenodd"/><g fill="#737373" fill-opacity="1"><g transform="translate(8.503354, 216.872734)"><g><path d="M 11.3125 40 L 11.3125 -96.75 L 26.859375 -96.75 L 30.90625 -86.65625 C 34.8125 -90.5625 39.285156 -93.585938 44.328125 -95.734375 C 49.378906 -97.890625 55.070312 -98.96875 61.40625 -98.96875 C 68.132812 -98.96875 74.359375 -97.65625 80.078125 -95.03125 C 85.804688 -92.40625 90.753906 -88.800781 94.921875 -84.21875 C 99.097656 -79.644531 102.363281 -74.257812 104.71875 -68.0625 C 107.082031 -61.875 108.265625 -55.28125 108.265625 -48.28125 C 108.265625 -41.269531 107.082031 -34.664062 104.71875 -28.46875 C 102.363281 -22.28125 99.097656 -16.894531 94.921875 -12.3125 C 90.753906 -7.738281 85.804688 -4.140625 80.078125 -1.515625 C 74.359375 1.109375 68.132812 2.421875 61.40625 2.421875 C 54.800781 2.421875 49.007812 1.3125 44.03125 -0.90625 C 39.050781 -3.125 34.675781 -6.320312 30.90625 -10.5 L 30.90625 40 Z M 59.78125 -81.203125 C 55.882812 -81.203125 52.179688 -80.5625 48.671875 -79.28125 C 45.171875 -78 42.109375 -75.976562 39.484375 -73.21875 C 36.859375 -70.457031 34.804688 -67.019531 33.328125 -62.90625 C 31.847656 -58.800781 31.109375 -53.925781 31.109375 -48.28125 C 31.109375 -42.21875 31.847656 -37.0625 33.328125 -32.8125 C 34.804688 -28.570312 36.859375 -25.140625 39.484375 -22.515625 C 42.109375 -19.890625 45.171875 -17.972656 48.671875 -16.765625 C 52.179688 -15.554688 55.882812 -14.953125 59.78125 -14.953125 C 63.6875 -14.953125 67.390625 -15.828125 70.890625 -17.578125 C 74.390625 -19.328125 77.421875 -21.710938 79.984375 -24.734375 C 82.546875 -27.765625 84.566406 -31.300781 86.046875 -35.34375 C 87.523438 -39.382812 88.265625 -43.695312 88.265625 -48.28125 C 88.265625 -52.851562 87.523438 -57.160156 86.046875 -61.203125 C 84.566406 -65.242188 82.546875 -68.742188 79.984375 -71.703125 C 77.421875 -74.660156 74.390625 -76.984375 70.890625 -78.671875 C 67.390625 -80.359375 63.6875 -81.203125 59.78125 -81.203125 Z M 59.78125 -81.203125 "/></g></g></g><g fill="#737373" fill-opacity="1"><g transform="translate(122.419646, 216.872734)"><g><path d="M 31.90625 -147.453125 L 31.90625 0 L 12.328125 0 L 12.328125 -147.453125 Z M 31.90625 -147.453125 "/></g></g></g><g fill="#737373" fill-opacity="1"><g transform="translate(165.239252, 216.872734)"><g><path d="M 103.015625 -96.75 L 103.015625 0 L 86.453125 0 L 83.421875 -11.109375 C 80.054688 -6.660156 75.742188 -3.289062 70.484375 -1 C 65.234375 1.28125 59.914062 2.421875 54.53125 2.421875 C 47.800781 2.421875 41.503906 1.109375 35.640625 -1.515625 C 29.785156 -4.140625 24.671875 -7.738281 20.296875 -12.3125 C 15.921875 -16.894531 12.453125 -22.28125 9.890625 -28.46875 C 7.335938 -34.664062 6.0625 -41.269531 6.0625 -48.28125 C 6.0625 -55.28125 7.335938 -61.875 9.890625 -68.0625 C 12.453125 -74.257812 15.921875 -79.644531 20.296875 -84.21875 C 24.671875 -88.800781 29.785156 -92.40625 35.640625 -95.03125 C 41.503906 -97.65625 47.800781 -98.96875 54.53125 -98.96875 C 59.914062 -98.96875 65.097656 -97.921875 70.078125 -95.828125 C 75.066406 -93.742188 79.515625 -90.484375 83.421875 -86.046875 L 86.453125 -96.75 Z M 54.53125 -14.953125 C 58.4375 -14.953125 62.140625 -15.828125 65.640625 -17.578125 C 69.140625 -19.328125 72.171875 -21.710938 74.734375 -24.734375 C 77.296875 -27.765625 79.316406 -31.300781 80.796875 -35.34375 C 82.273438 -39.382812 83.015625 -43.695312 83.015625 -48.28125 C 83.015625 -52.851562 82.273438 -57.160156 80.796875 -61.203125 C 79.316406 -65.242188 77.296875 -68.773438 74.734375 -71.796875 C 72.171875 -74.828125 69.140625 -77.21875 65.640625 -78.96875 C 62.140625 -80.726562 58.4375 -81.609375 54.53125 -81.609375 C 50.625 -81.609375 46.921875 -80.726562 43.421875 -78.96875 C 39.921875 -77.21875 36.890625 -74.828125 34.328125 -71.796875 C 31.773438 -68.773438 29.757812 -65.242188 28.28125 -61.203125 C 26.800781 -57.160156 26.0625 -52.851562 26.0625 -48.28125 C 26.0625 -43.695312 26.800781 -39.382812 28.28125 -35.34375 C 29.757812 -31.300781 31.773438 -27.765625 34.328125 -24.734375 C 36.890625 -21.710938 39.921875 -19.328125 43.421875 -17.578125 C 46.921875 -15.828125 50.625 -14.953125 54.53125 -14.953125 Z M 54.53125 -14.953125 "/></g></g></g><g fill="#737373" fill-opacity="1"><g transform="translate(276.933788, 216.872734)"><g><path d="M 63.828125 -0.203125 C 58.304688 1.679688 52.851562 2.828125 47.46875 3.234375 C 42.082031 3.640625 37.234375 2.863281 32.921875 0.90625 C 28.609375 -1.039062 25.101562 -4.472656 22.40625 -9.390625 C 19.71875 -14.304688 18.375 -21.207031 18.375 -30.09375 L 18.375 -79.171875 L 4.234375 -79.171875 L 4.234375 -92.703125 L 18.375 -96.75 L 18.375 -122.609375 L 37.96875 -122.609375 L 37.96875 -96.75 L 64.234375 -96.75 L 64.234375 -79.171875 L 37.96875 -79.171875 L 37.96875 -27.0625 C 37.96875 -23.832031 38.335938 -21.273438 39.078125 -19.390625 C 39.816406 -17.503906 41.0625 -16.085938 42.8125 -15.140625 C 44.570312 -14.203125 46.863281 -13.734375 49.6875 -13.734375 C 52.519531 -13.734375 55.953125 -14.003906 59.984375 -14.546875 Z M 63.828125 -0.203125 "/></g></g></g><g fill="#000000" fill-opacity="1"><g transform="translate(346.016621, 216.872734)"><g/></g></g><g fill="#000000" fill-opacity="1"><g transform="translate(398.733189, 216.872734)"><g/></g></g><g fill="#000000" fill-opacity="1"><g transform="translate(451.449757, 216.872734)"><g/></g></g><g fill="#000000" fill-opacity="1"><g transform="translate(504.166324, 216.872734)"><g/></g></g><g fill="#000000" fill-opacity="1"><g transform="translate(556.882892, 216.872734)"><g/></g></g><g clip-path="url(#4aa4d53cc6)"><path fill="#737373" d="M 263.421875 91.027344 C 262.960938 90.867188 262.347656 90.804688 261.726562 90.753906 C 261.769531 90.722656 261.785156 90.671875 261.78125 90.609375 C 261.433594 90.597656 261.285156 90.71875 260.910156 90.6875 C 261.027344 90.613281 260.929688 90.554688 260.742188 90.582031 C 260.851562 90.492188 261.191406 90.546875 261.179688 90.648438 C 261.25 90.640625 261.234375 90.578125 261.179688 90.578125 C 262.070312 90.628906 262.984375 90.480469 263.746094 90.632812 C 263.296875 90.324219 261.847656 90.328125 261.175781 90.148438 C 261.21875 90.066406 261.515625 90.113281 261.449219 90.21875 C 261.523438 90.183594 261.652344 90.183594 261.667969 90.109375 C 262.261719 90.226562 262.933594 90.273438 263.523438 90.242188 C 264.199219 90.496094 265.105469 90.597656 265.492188 91.046875 C 265.519531 91.339844 265.441406 91.492188 265.5 91.726562 C 265.324219 92.03125 265.132812 92.320312 264.796875 92.519531 C 265.03125 92.8125 265.171875 93.035156 265.183594 93.335938 C 265.113281 93.394531 264.78125 93.46875 265.019531 93.519531 C 264.90625 93.5625 264.792969 93.605469 264.695312 93.664062 C 264.722656 93.757812 264.996094 93.78125 264.859375 93.875 C 264.671875 93.90625 264.648438 93.824219 264.476562 93.84375 C 264.519531 94.054688 264.921875 94.140625 265.027344 94.410156 C 265.160156 94.742188 264.914062 95.144531 264.925781 95.554688 C 264.394531 95.558594 264.582031 96.085938 263.839844 96.027344 C 264.402344 96.257812 265.21875 96.492188 265.917969 96.511719 C 266.042969 96.65625 266.222656 97.039062 265.921875 97.15625 C 265.984375 97.21875 266.0625 97.277344 266.140625 97.332031 C 266.027344 97.421875 265.582031 97.335938 265.761719 97.515625 C 265.214844 97.601562 264.511719 97.476562 264.125 97.777344 C 264.132812 97.867188 264.328125 97.832031 264.398438 97.882812 C 264.417969 97.972656 264.296875 98.089844 264.347656 98.167969 C 264.652344 98.242188 264.5 98.304688 264.785156 98.308594 C 264.71875 98.40625 264.613281 98.480469 264.402344 98.488281 C 264.570312 98.582031 264.875 98.582031 264.949219 98.734375 C 264.328125 98.90625 264.058594 98.789062 263.371094 98.820312 C 264.355469 99 265.238281 99.25 266.046875 99.550781 C 266.058594 99.707031 266.070312 99.863281 265.941406 99.835938 C 266.042969 99.949219 266.125 99.863281 266.214844 99.796875 C 266.273438 100.105469 266.304688 100.292969 266.601562 100.476562 C 266.492188 100.730469 266.113281 100.628906 265.785156 100.695312 C 265.832031 100.867188 265.90625 101.019531 266.167969 101.050781 C 265.996094 101.375 265.070312 101.332031 264.753906 101.453125 C 264.878906 101.667969 265.21875 101.488281 265.515625 101.445312 C 265.441406 101.59375 265.636719 101.558594 265.628906 101.660156 C 264.65625 101.695312 264.570312 101.988281 263.554688 101.890625 C 263.527344 102.820312 262.8125 103.308594 262.425781 104.007812 C 261.953125 103.921875 261.742188 104.078125 261.5 104.226562 C 261.476562 104.328125 261.796875 104.199219 261.773438 104.296875 C 261.347656 104.421875 260.75 104.402344 260.136719 104.453125 C 259.570312 104.5 259.085938 104.5 258.71875 104.355469 C 255.910156 104.710938 253.710938 104.429688 250.757812 104.59375 C 250.707031 104.480469 250.9375 104.542969 250.917969 104.449219 C 250.011719 104.445312 248.417969 104.714844 247.539062 104.511719 C 247.363281 104.542969 247.460938 104.394531 247.371094 104.367188 C 246.683594 104.390625 246.0625 104.621094 245.628906 104.382812 C 244.644531 104.328125 243.558594 104.621094 242.84375 104.402344 C 239.976562 104.449219 237.667969 104.582031 235.261719 104.316406 C 233.890625 104.25 232.773438 104.34375 231.386719 104.273438 C 231.582031 104.101562 232.039062 104.097656 232.421875 104.050781 C 231.917969 103.992188 231.097656 103.980469 230.40625 104.027344 C 228.089844 104.195312 225.675781 104.140625 223.3125 104.046875 C 223.203125 103.964844 223.328125 104.007812 223.367188 103.9375 C 222.902344 103.824219 222.414062 103.984375 222.003906 104.019531 C 221.902344 103.953125 221.996094 103.929688 222.003906 103.839844 C 221.535156 103.796875 221.671875 103.949219 221.402344 103.988281 C 221.148438 104.023438 221.476562 103.894531 221.292969 103.882812 C 221.175781 103.867188 221.191406 103.933594 221.183594 103.988281 C 220.558594 103.941406 220.058594 103.910156 219.332031 103.96875 C 219.105469 103.984375 219.371094 103.878906 219.21875 103.824219 C 218.304688 103.8125 217 104.019531 216.003906 103.921875 C 215.527344 103.875 215.230469 103.925781 214.691406 103.929688 C 214.234375 103.933594 213.789062 103.746094 213.273438 103.691406 C 212.851562 103.644531 212.222656 103.792969 211.582031 103.703125 C 211.59375 103.652344 211.746094 103.691406 211.746094 103.632812 C 209.890625 103.695312 207.613281 103.703125 205.855469 103.890625 C 203.734375 103.753906 201.285156 104.097656 199.367188 104.078125 C 199.410156 104.027344 199.503906 104 199.636719 104.007812 C 197.761719 103.863281 194.882812 103.839844 192.492188 103.917969 C 192.265625 103.9375 192.257812 104.097656 191.949219 104.0625 C 191.800781 104.269531 191.363281 104.28125 191.078125 104.355469 C 191.027344 104.367188 190.863281 104.460938 190.804688 104.464844 C 189.933594 104.5 190.191406 103.839844 189.707031 103.507812 C 189.449219 103.613281 189.183594 103.652344 188.941406 103.511719 C 188.960938 103.289062 189.359375 103.308594 189.484375 103.152344 C 189.414062 103.101562 189.179688 103.039062 189.160156 103.15625 C 189.035156 103.082031 189.035156 102.96875 189.15625 102.90625 C 188.964844 102.886719 189.023438 103.03125 188.832031 103.015625 C 188.808594 102.9375 188.867188 102.917969 188.882812 102.871094 C 188.710938 102.851562 188.714844 102.9375 188.609375 102.871094 C 188.597656 102.648438 188.625 102.453125 188.824219 102.371094 C 187.730469 102.144531 186.839844 101.5625 185.925781 101.105469 C 185.949219 100.886719 186.226562 100.828125 186.25 100.605469 C 186.917969 100.472656 187.347656 100.40625 188.15625 100.375 C 188.285156 100.304688 188.054688 100.175781 188.207031 100.089844 C 188.4375 100.121094 188.757812 100.113281 188.917969 99.941406 C 188.714844 99.890625 188.617188 99.929688 188.371094 99.875 C 188.40625 99.789062 188.550781 99.777344 188.585938 99.691406 C 188.242188 99.488281 188.792969 99.167969 188.582031 98.941406 C 188.675781 98.859375 188.890625 99 189.074219 98.976562 C 188.785156 98.863281 189.367188 98.910156 189.453125 98.828125 C 189.429688 98.753906 189 98.910156 189.125 98.757812 C 188.582031 98.816406 188.742188 98.738281 188.308594 98.765625 C 188.375 98.222656 189.214844 98.011719 190.101562 97.753906 C 189.976562 97.644531 189.769531 97.4375 189.878906 97.289062 C 189.804688 97.21875 189.574219 97.351562 189.441406 97.363281 C 189.441406 97.257812 189.585938 97.242188 189.605469 97.148438 C 189.476562 97.0625 189.503906 97.203125 189.332031 97.183594 C 189.492188 96.976562 189.789062 97.042969 190.039062 96.929688 C 189.792969 96.792969 189.53125 96.925781 189.222656 96.9375 C 189.246094 96.878906 189.394531 96.902344 189.332031 96.792969 C 189.175781 96.789062 189.222656 96.914062 189.003906 96.867188 C 188.976562 96.753906 189.171875 96.785156 189.109375 96.652344 C 188.832031 96.691406 188.488281 96.726562 188.238281 96.691406 C 188.238281 96.5625 188.429688 96.554688 188.507812 96.476562 C 188.328125 96.417969 188.203125 96.515625 187.964844 96.515625 C 187.941406 96.359375 187.941406 96.195312 188.34375 96.15625 C 188.324219 96.074219 188.351562 96.019531 188.398438 95.976562 C 188.167969 95.875 188.066406 95.9375 187.578125 95.910156 C 187.492188 95.75 187.804688 95.632812 187.738281 95.519531 C 187.589844 95.257812 187.285156 95.304688 186.863281 95.308594 C 187.039062 95.164062 186.957031 95.074219 187.132812 94.949219 C 186.859375 94.84375 187.0625 94.710938 187.074219 94.484375 C 187.171875 94.480469 187.191406 94.527344 187.292969 94.519531 C 187.417969 94.136719 188.371094 94.289062 188.488281 93.90625 C 188.238281 93.832031 188.394531 93.488281 188.15625 93.40625 C 188.460938 92.9375 188.1875 92.097656 189.183594 92.078125 C 189.125 91.921875 188.949219 91.851562 188.636719 91.867188 C 188.6875 91.703125 188.519531 91.679688 188.308594 91.6875 C 188.394531 91.507812 188.429688 91.496094 188.199219 91.40625 C 188.445312 91.089844 188.382812 90.773438 188.625 90.328125 C 190.878906 90.453125 194.007812 90.449219 195.992188 90.558594 C 196.046875 90.558594 196.035156 90.515625 196.046875 90.488281 C 196.480469 90.6875 197.148438 90.570312 197.574219 90.441406 C 197.546875 90.46875 197.515625 90.5 197.519531 90.550781 C 197.757812 90.574219 197.828125 90.488281 198.066406 90.511719 C 198.535156 90.585938 200.273438 90.359375 201.390625 90.34375 C 202.617188 90.320312 203.894531 90.15625 204.496094 89.996094 C 204.691406 90.304688 205.316406 90.183594 205.972656 90.164062 C 206.136719 90.152344 206.066406 90.296875 206.191406 90.304688 C 206.527344 90.148438 207.496094 90.390625 207.882812 90.1875 C 207.914062 90.09375 207.859375 90.058594 207.71875 90.082031 C 208.105469 89.953125 208.589844 90.09375 209.027344 90 C 208.988281 89.964844 208.898438 89.964844 208.917969 89.894531 C 209.660156 89.933594 210.453125 90.050781 210.9375 90.234375 C 211.203125 90.160156 211.367188 90.273438 211.59375 90.300781 C 212.242188 90.386719 213.21875 90.222656 213.992188 90.210938 C 216.371094 90.183594 218.707031 90.378906 220.921875 90.234375 C 220.957031 90.269531 221.046875 90.269531 221.03125 90.339844 C 222.757812 90.3125 224.132812 90.183594 225.828125 90.195312 C 225.84375 90.101562 225.714844 90.105469 225.609375 90.089844 C 226.042969 90.054688 226.453125 90.1875 226.8125 90.261719 C 227.1875 90.011719 227.480469 90.296875 228.011719 90.289062 C 228.042969 90.367188 227.90625 90.339844 227.902344 90.394531 C 229.675781 90.519531 231.265625 89.964844 233.082031 90.25 C 233.152344 90.1875 233.261719 90.152344 233.410156 90.140625 C 233.359375 90.371094 232.855469 90.304688 232.59375 90.398438 C 233.429688 90.402344 234.4375 90.285156 235.429688 90.484375 C 235.777344 90.148438 236.761719 90.351562 237.554688 90.253906 C 237.570312 90.3125 237.503906 90.316406 237.503906 90.359375 C 237.757812 90.359375 237.917969 90.421875 238.15625 90.425781 C 238.160156 90.304688 237.953125 90.324219 237.773438 90.324219 C 238.210938 90.144531 238.820312 90.449219 239.027344 90.097656 C 239.324219 90.140625 239.523438 90.140625 239.683594 90.023438 C 239.699219 90.082031 239.632812 90.085938 239.628906 90.132812 C 241.136719 90.328125 242.855469 90.304688 244.8125 90.308594 C 244.785156 90.167969 244.433594 90.246094 244.320312 90.167969 C 246.171875 89.988281 248.261719 90.519531 250.15625 90.125 C 249.886719 90.011719 249.273438 90.035156 249.0625 89.988281 C 248.949219 89.96875 248.707031 90.039062 248.683594 89.957031 C 249.304688 89.972656 249.519531 89.863281 250.046875 89.875 C 250.128906 89.835938 250.15625 89.757812 250.316406 89.765625 C 250.199219 89.84375 250.34375 89.867188 250.320312 89.980469 C 250.554688 90.015625 250.621094 89.9375 250.753906 89.90625 C 251.054688 90.0625 251.332031 90 251.683594 89.898438 C 253.574219 90.246094 255.992188 89.941406 258.121094 90.066406 C 257.605469 90.242188 256.84375 90.0625 256.375 90.292969 C 256.46875 90.386719 256.917969 90.246094 256.8125 90.46875 C 257.046875 90.488281 257.035156 90.351562 257.25 90.359375 C 257.320312 90.40625 257.320312 90.492188 257.25 90.539062 C 257.695312 90.449219 258.515625 90.46875 259.050781 90.667969 C 258.890625 90.667969 258.726562 90.667969 258.5625 90.671875 C 259.695312 90.757812 261.445312 90.964844 262.761719 90.925781 C 262.882812 91.109375 262.996094 90.929688 263.421875 91.027344 Z M 224.195312 90.421875 C 224.464844 90.40625 224.75 90.445312 224.523438 90.5625 C 224.746094 90.578125 224.800781 90.484375 224.957031 90.453125 C 224.726562 90.453125 224.828125 90.375 224.902344 90.3125 C 224.691406 90.441406 224.226562 90.1875 224.195312 90.421875 Z M 250.703125 90.191406 C 250.636719 90.183594 250.59375 90.136719 250.59375 90.226562 C 250.875 90.222656 251.140625 90.1875 251.304688 90.222656 C 251.289062 90.070312 250.832031 90.097656 250.703125 90.191406 Z M 235.65625 91.089844 C 235.601562 91.21875 235.960938 91.164062 235.925781 91.085938 C 235.792969 91.085938 235.757812 91.023438 235.65625 91.089844 Z M 236.035156 91.15625 C 236.21875 91.132812 236.542969 91.199219 236.636719 91.117188 C 236.347656 91.101562 236.222656 91 236.035156 91.15625 Z M 227.921875 92.863281 C 228.078125 92.96875 228.386719 92.835938 228.414062 92.964844 C 228.574219 92.96875 228.691406 92.859375 228.796875 92.925781 C 228.792969 92.878906 228.792969 92.832031 228.792969 92.785156 C 228.523438 92.824219 228.152344 92.796875 227.921875 92.863281 Z M 253.464844 94.601562 C 253.628906 94.566406 253.859375 94.574219 253.898438 94.457031 C 253.6875 94.460938 253.421875 94.433594 253.464844 94.601562 Z M 254.667969 94.84375 C 255.421875 94.773438 254.339844 94.742188 254.230469 94.847656 C 254.410156 94.839844 254.554688 94.855469 254.667969 94.84375 Z M 205.207031 97.175781 C 205.25 97.203125 205.539062 97.210938 205.53125 97.101562 C 205.386719 97.105469 205.210938 97.085938 205.207031 97.175781 Z M 221.476562 99.128906 C 221.546875 98.996094 221.152344 98.988281 221.09375 99.058594 C 221.308594 99.023438 221.234375 99.183594 221.476562 99.128906 Z M 222.347656 99.121094 C 222.835938 99.183594 223.238281 99.121094 223.820312 99.144531 C 223.523438 99.097656 222.652344 98.984375 222.347656 99.121094 Z M 225.1875 99.136719 C 225.101562 99.132812 224.996094 99.144531 225.023438 99.066406 C 224.691406 99.140625 224.191406 99.0625 223.929688 99.074219 C 224.53125 99.191406 224.816406 99.21875 225.1875 99.136719 Z M 219.460938 99.320312 C 219.089844 99.378906 218.566406 99.230469 218.421875 99.363281 C 219.0625 99.460938 220.476562 99.5 221.207031 99.34375 C 220.628906 99.308594 220.277344 99.222656 219.730469 99.285156 C 220.15625 99.414062 219.351562 99.238281 219.351562 99.25 C 219.410156 99.257812 219.433594 99.289062 219.460938 99.320312 Z M 225.570312 99.277344 C 225.695312 99.277344 225.824219 99.273438 225.949219 99.273438 C 225.972656 99.128906 225.582031 99.21875 225.570312 99.277344 Z M 221.371094 99.34375 C 221.335938 99.34375 221.304688 99.347656 221.316406 99.378906 C 221.554688 99.394531 222.296875 99.347656 221.695312 99.339844 C 221.582031 99.261719 221.519531 99.375 221.421875 99.308594 C 221.417969 99.285156 221.414062 99.265625 221.367188 99.269531 C 221.367188 99.296875 221.367188 99.320312 221.371094 99.34375 Z M 218.261719 99.582031 C 218.207031 99.652344 218.058594 99.664062 217.988281 99.726562 C 219.175781 99.78125 221.203125 99.734375 222.570312 99.691406 C 221.359375 99.5 219.695312 99.703125 218.261719 99.582031 Z M 257.441406 101.007812 C 258 101.234375 258.8125 101.316406 259.515625 101.277344 C 258.800781 101.246094 258.011719 100.894531 257.441406 101.007812 Z M 255.042969 101.382812 C 255.21875 101.488281 255.679688 101.464844 255.859375 101.375 C 255.84375 101.457031 255.875 101.507812 255.96875 101.519531 C 256.0625 101.445312 255.929688 101.449219 256.023438 101.375 C 255.722656 101.234375 255.402344 101.304688 255.042969 101.382812 Z M 254.058594 101.425781 C 254.277344 101.410156 254.363281 101.484375 254.605469 101.457031 C 254.585938 101.273438 254.0625 101.351562 254.058594 101.425781 Z M 258.808594 101.710938 C 258.984375 101.742188 259.148438 101.734375 259.464844 101.742188 C 259.457031 101.578125 258.992188 101.679688 258.808594 101.710938 Z M 210.214844 103.355469 C 210.082031 103.417969 209.6875 103.292969 209.507812 103.398438 C 209.628906 103.507812 210.136719 103.484375 210.214844 103.355469 Z M 233.945312 103.539062 C 233.746094 103.566406 233.644531 103.453125 233.511719 103.542969 C 233.714844 103.703125 234.167969 103.652344 234.546875 103.640625 C 235.160156 103.621094 235.738281 103.53125 236.347656 103.59375 C 235.765625 103.398438 234.398438 103.507812 233.945312 103.539062 Z M 237.21875 103.550781 C 237.460938 103.59375 238.023438 103.554688 238.363281 103.46875 C 237.964844 103.511719 237.277344 103.335938 237.21875 103.550781 Z M 240.546875 103.453125 C 240.535156 103.613281 240.011719 103.441406 240.003906 103.601562 C 240.277344 103.660156 240.46875 103.609375 240.710938 103.5625 C 240.738281 103.65625 240.753906 103.679688 240.878906 103.773438 C 242.011719 103.460938 243.113281 103.960938 244.203125 103.640625 C 243 103.488281 241.746094 103.660156 240.546875 103.453125 Z M 230.511719 103.671875 C 230.234375 103.671875 229.878906 103.519531 229.75 103.75 C 230.730469 103.808594 231.703125 103.78125 232.691406 103.585938 C 231.984375 103.582031 231.195312 103.667969 230.511719 103.671875 Z M 230.511719 103.671875 " fill-opacity="1" fill-rule="evenodd"/></g></svg>