<svg xmlns="http://www.w3.org/2000/svg" xmlns:xlink="http://www.w3.org/1999/xlink" width="800" zoomAndPan="magnify" viewBox="0 0 600 307.91998" height="400" preserveAspectRatio="xMidYMid meet" version="1.0"><defs><g/><clipPath id="ee97797ad1"><path d="M 190.453125 90.785156 L 270.773438 90.785156 L 270.773438 104.839844 L 190.453125 104.839844 Z M 190.453125 90.785156 " clip-rule="nonzero"/></clipPath><clipPath id="c092215972"><path d="M 342.445312 23.910156 L 374 23.910156 L 374 56 L 342.445312 56 Z M 342.445312 23.910156 " clip-rule="nonzero"/></clipPath><clipPath id="a3cccd85be"><path d="M 342.710938 213 L 374 213 L 374 244.777344 L 342.710938 244.777344 Z M 342.710938 213 " clip-rule="nonzero"/></clipPath><clipPath id="e1659c3b59"><path d="M 547.789062 23.910156 L 579.148438 23.910156 L 579.148438 55.414062 L 547.789062 55.414062 Z M 547.789062 23.910156 " clip-rule="nonzero"/></clipPath><clipPath id="32e14d17c4"><path d="M 547.789062 213 L 579.148438 213 L 579.148438 244.777344 L 547.789062 244.777344 Z M 547.789062 213 " clip-rule="nonzero"/></clipPath><clipPath id="69baa6a830"><path d="M 357.761719 39 L 562.582031 39 L 562.582031 244 L 357.761719 244 Z M 357.761719 39 " clip-rule="nonzero"/></clipPath><clipPath id="f97d435964"><path d="M 353 43.863281 L 382 43.863281 L 382 72 L 353 72 Z M 353 43.863281 " clip-rule="nonzero"/></clipPath><clipPath id="684de90ea6"><path d="M 353.238281 211.644531 L 381.203125 211.644531 L 381.203125 239.914062 L 353.238281 239.914062 Z M 353.238281 211.644531 " clip-rule="nonzero"/></clipPath><clipPath id="5c320f666e"><path d="M 536.199219 43.863281 L 563.839844 43.863281 L 563.839844 71.828125 L 536.199219 71.828125 Z M 536.199219 43.863281 " clip-rule="nonzero"/></clipPath><clipPath id="a772d780c3"><path d="M 536.199219 211.644531 L 563.839844 211.644531 L 563.839844 239.914062 L 536.199219 239.914062 Z M 536.199219 211.644531 " clip-rule="nonzero"/></clipPath></defs><g fill="#ffffff" fill-opacity="1"><g transform="translate(13.03761, 214.678043)"><g><path d="M 11.3125 39.984375 L 11.3125 -96.75 L 26.859375 -96.75 L 30.90625 -86.640625 C 34.8125 -90.546875 39.285156 -93.578125 44.328125 -95.734375 C 49.378906 -97.890625 55.070312 -98.96875 61.40625 -98.96875 C 68.132812 -98.96875 74.359375 -97.65625 80.078125 -95.03125 C 85.804688 -92.40625 90.753906 -88.800781 94.921875 -84.21875 C 99.097656 -79.644531 102.363281 -74.257812 104.71875 -68.0625 C 107.070312 -61.863281 108.25 -55.265625 108.25 -48.265625 C 108.25 -41.265625 107.070312 -34.664062 104.71875 -28.46875 C 102.363281 -22.28125 99.097656 -16.894531 94.921875 -12.3125 C 90.753906 -7.738281 85.804688 -4.140625 80.078125 -1.515625 C 74.359375 1.109375 68.132812 2.421875 61.40625 2.421875 C 54.800781 2.421875 49.007812 1.3125 44.03125 -0.90625 C 39.050781 -3.125 34.675781 -6.320312 30.90625 -10.5 L 30.90625 39.984375 Z M 59.78125 -81.1875 C 55.875 -81.1875 52.171875 -80.546875 48.671875 -79.265625 C 45.171875 -77.992188 42.109375 -75.976562 39.484375 -73.21875 C 36.859375 -70.457031 34.804688 -67.019531 33.328125 -62.90625 C 31.847656 -58.800781 31.109375 -53.921875 31.109375 -48.265625 C 31.109375 -42.210938 31.847656 -37.0625 33.328125 -32.8125 C 34.804688 -28.570312 36.859375 -25.140625 39.484375 -22.515625 C 42.109375 -19.890625 45.171875 -17.972656 48.671875 -16.765625 C 52.171875 -15.554688 55.875 -14.953125 59.78125 -14.953125 C 63.6875 -14.953125 67.390625 -15.828125 70.890625 -17.578125 C 74.390625 -19.328125 77.414062 -21.710938 79.96875 -24.734375 C 82.53125 -27.765625 84.550781 -31.300781 86.03125 -35.34375 C 87.519531 -39.382812 88.265625 -43.691406 88.265625 -48.265625 C 88.265625 -52.847656 87.519531 -57.15625 86.03125 -61.1875 C 84.550781 -65.226562 82.53125 -68.726562 79.96875 -71.6875 C 77.414062 -74.65625 74.390625 -76.976562 70.890625 -78.65625 C 67.390625 -80.34375 63.6875 -81.1875 59.78125 -81.1875 Z M 59.78125 -81.1875 "/></g></g></g><g fill="#ffffff" fill-opacity="1"><g transform="translate(126.945888, 214.678043)"><g><path d="M 31.90625 -147.4375 L 31.90625 0 L 12.3125 0 L 12.3125 -147.4375 Z M 31.90625 -147.4375 "/></g></g></g><g fill="#ffffff" fill-opacity="1"><g transform="translate(169.762487, 214.678043)"><g><path d="M 103 -96.75 L 103 0 L 86.4375 0 L 83.40625 -11.109375 C 80.039062 -6.660156 75.734375 -3.289062 70.484375 -1 C 65.234375 1.28125 59.914062 2.421875 54.53125 2.421875 C 47.800781 2.421875 41.503906 1.109375 35.640625 -1.515625 C 29.785156 -4.140625 24.671875 -7.738281 20.296875 -12.3125 C 15.921875 -16.894531 12.453125 -22.28125 9.890625 -28.46875 C 7.335938 -34.664062 6.0625 -41.265625 6.0625 -48.265625 C 6.0625 -55.265625 7.335938 -61.863281 9.890625 -68.0625 C 12.453125 -74.257812 15.921875 -79.644531 20.296875 -84.21875 C 24.671875 -88.800781 29.785156 -92.40625 35.640625 -95.03125 C 41.503906 -97.65625 47.800781 -98.96875 54.53125 -98.96875 C 59.914062 -98.96875 65.097656 -97.921875 70.078125 -95.828125 C 75.066406 -93.742188 79.507812 -90.476562 83.40625 -86.03125 L 86.4375 -96.75 Z M 54.53125 -14.953125 C 58.4375 -14.953125 62.140625 -15.828125 65.640625 -17.578125 C 69.140625 -19.328125 72.164062 -21.710938 74.71875 -24.734375 C 77.28125 -27.765625 79.300781 -31.300781 80.78125 -35.34375 C 82.269531 -39.382812 83.015625 -43.691406 83.015625 -48.265625 C 83.015625 -52.847656 82.269531 -57.15625 80.78125 -61.1875 C 79.300781 -65.226562 77.28125 -68.765625 74.71875 -71.796875 C 72.164062 -74.828125 69.140625 -77.21875 65.640625 -78.96875 C 62.140625 -80.71875 58.4375 -81.59375 54.53125 -81.59375 C 50.625 -81.59375 46.921875 -80.71875 43.421875 -78.96875 C 39.921875 -77.21875 36.890625 -74.828125 34.328125 -71.796875 C 31.773438 -68.765625 29.753906 -65.226562 28.265625 -61.1875 C 26.785156 -57.15625 26.046875 -52.847656 26.046875 -48.265625 C 26.046875 -43.691406 26.785156 -39.382812 28.265625 -35.34375 C 29.753906 -31.300781 31.773438 -27.765625 34.328125 -24.734375 C 36.890625 -21.710938 39.921875 -19.328125 43.421875 -17.578125 C 46.921875 -15.828125 50.625 -14.953125 54.53125 -14.953125 Z M 54.53125 -14.953125 "/></g></g></g><g fill="#ffffff" fill-opacity="1"><g transform="translate(281.449161, 214.678043)"><g><path d="M 63.828125 -0.203125 C 58.304688 1.679688 52.851562 2.828125 47.46875 3.234375 C 42.082031 3.640625 37.234375 2.863281 32.921875 0.90625 C 28.609375 -1.039062 25.101562 -4.472656 22.40625 -9.390625 C 19.71875 -14.304688 18.375 -21.207031 18.375 -30.09375 L 18.375 -79.171875 L 4.234375 -79.171875 L 4.234375 -92.703125 L 18.375 -96.75 L 18.375 -122.59375 L 37.96875 -122.59375 L 37.96875 -96.75 L 64.21875 -96.75 L 64.21875 -79.171875 L 37.96875 -79.171875 L 37.96875 -27.0625 C 37.96875 -23.832031 38.335938 -21.273438 39.078125 -19.390625 C 39.816406 -17.503906 41.0625 -16.085938 42.8125 -15.140625 C 44.5625 -14.203125 46.847656 -13.734375 49.671875 -13.734375 C 52.503906 -13.734375 55.941406 -14.003906 59.984375 -14.546875 Z M 63.828125 -0.203125 "/></g></g></g><g fill="#ffffff" fill-opacity="1"><g transform="translate(350.545636, 214.678043)"><g/></g></g><g fill="#ffffff" fill-opacity="1"><g transform="translate(403.2585, 214.678043)"><g/></g></g><g fill="#ffffff" fill-opacity="1"><g transform="translate(455.971364, 214.678043)"><g/></g></g><g fill="#ffffff" fill-opacity="1"><g transform="translate(508.684227, 214.678043)"><g/></g></g><g fill="#ffffff" fill-opacity="1"><g transform="translate(561.397091, 214.678043)"><g/></g></g><g clip-path="url(#ee97797ad1)"><path fill="#ffffff" d="M 267.609375 92.007812 C 267.152344 91.855469 266.542969 91.800781 265.921875 91.75 C 265.964844 91.71875 265.980469 91.671875 265.976562 91.613281 C 265.628906 91.605469 265.484375 91.714844 265.109375 91.6875 C 265.222656 91.617188 265.128906 91.558594 264.945312 91.589844 C 265.050781 91.5 265.386719 91.554688 265.378906 91.652344 C 265.449219 91.644531 265.433594 91.585938 265.378906 91.585938 C 266.261719 91.628906 267.175781 91.492188 267.933594 91.632812 C 267.488281 91.34375 266.042969 91.347656 265.375 91.179688 C 265.417969 91.101562 265.710938 91.144531 265.648438 91.246094 C 265.71875 91.210938 265.851562 91.210938 265.863281 91.144531 C 266.453125 91.253906 267.121094 91.296875 267.710938 91.265625 C 268.382812 91.507812 269.289062 91.605469 269.671875 92.027344 C 269.695312 92.300781 269.621094 92.449219 269.675781 92.667969 C 269.503906 92.953125 269.3125 93.230469 268.976562 93.414062 C 269.214844 93.691406 269.351562 93.902344 269.363281 94.1875 C 269.292969 94.242188 268.964844 94.3125 269.203125 94.359375 C 269.089844 94.402344 268.972656 94.441406 268.878906 94.496094 C 268.90625 94.582031 269.179688 94.605469 269.042969 94.695312 C 268.855469 94.722656 268.832031 94.648438 268.660156 94.664062 C 268.703125 94.863281 269.101562 94.945312 269.210938 95.199219 C 269.339844 95.515625 269.09375 95.890625 269.109375 96.28125 C 268.578125 96.28125 268.765625 96.777344 268.027344 96.726562 C 268.585938 96.941406 269.402344 97.164062 270.09375 97.183594 C 270.21875 97.320312 270.398438 97.679688 270.097656 97.789062 C 270.160156 97.851562 270.242188 97.902344 270.316406 97.957031 C 270.203125 98.039062 269.761719 97.960938 269.9375 98.128906 C 269.394531 98.210938 268.695312 98.089844 268.3125 98.375 C 268.316406 98.460938 268.515625 98.429688 268.582031 98.476562 C 268.601562 98.558594 268.484375 98.671875 268.53125 98.746094 C 268.835938 98.816406 268.683594 98.871094 268.964844 98.875 C 268.898438 98.96875 268.796875 99.042969 268.585938 99.046875 C 268.753906 99.132812 269.058594 99.132812 269.132812 99.28125 C 268.511719 99.441406 268.242188 99.332031 267.558594 99.359375 C 268.539062 99.527344 269.417969 99.765625 270.222656 100.046875 C 270.234375 100.195312 270.246094 100.34375 270.117188 100.320312 C 270.21875 100.425781 270.300781 100.347656 270.390625 100.28125 C 270.449219 100.574219 270.480469 100.75 270.773438 100.921875 C 270.667969 101.160156 270.289062 101.066406 269.960938 101.128906 C 270.011719 101.289062 270.082031 101.4375 270.34375 101.464844 C 270.171875 101.769531 269.25 101.726562 268.933594 101.84375 C 269.058594 102.046875 269.398438 101.878906 269.695312 101.839844 C 269.621094 101.976562 269.8125 101.945312 269.804688 102.039062 C 268.839844 102.074219 268.753906 102.351562 267.742188 102.257812 C 267.714844 103.132812 267.003906 103.59375 266.617188 104.253906 C 266.148438 104.171875 265.9375 104.320312 265.695312 104.460938 C 265.671875 104.554688 265.992188 104.433594 265.96875 104.527344 C 265.542969 104.644531 264.949219 104.625 264.339844 104.675781 C 263.773438 104.71875 263.292969 104.71875 262.929688 104.582031 C 260.132812 104.917969 257.941406 104.652344 255 104.808594 C 254.953125 104.699219 255.179688 104.757812 255.160156 104.671875 C 254.257812 104.667969 252.671875 104.917969 251.796875 104.726562 C 251.621094 104.757812 251.71875 104.617188 251.632812 104.59375 C 250.945312 104.613281 250.328125 104.832031 249.894531 104.605469 C 248.917969 104.554688 247.835938 104.832031 247.125 104.625 C 244.269531 104.671875 241.96875 104.792969 239.574219 104.542969 C 238.207031 104.480469 237.09375 104.570312 235.714844 104.503906 C 235.910156 104.34375 236.363281 104.339844 236.746094 104.292969 C 236.246094 104.238281 235.425781 104.226562 234.738281 104.273438 C 232.433594 104.433594 230.03125 104.378906 227.675781 104.289062 C 227.570312 104.210938 227.691406 104.253906 227.730469 104.1875 C 227.269531 104.082031 226.785156 104.230469 226.375 104.265625 C 226.273438 104.203125 226.367188 104.179688 226.371094 104.097656 C 225.90625 104.054688 226.042969 104.199219 225.777344 104.234375 C 225.523438 104.265625 225.851562 104.148438 225.667969 104.136719 C 225.550781 104.121094 225.5625 104.183594 225.558594 104.238281 C 224.9375 104.191406 224.4375 104.160156 223.710938 104.214844 C 223.488281 104.234375 223.753906 104.132812 223.601562 104.082031 C 222.691406 104.070312 221.394531 104.265625 220.398438 104.171875 C 219.925781 104.128906 219.628906 104.175781 219.09375 104.183594 C 218.640625 104.183594 218.195312 104.007812 217.683594 103.957031 C 217.261719 103.914062 216.636719 104.050781 216 103.96875 C 216.011719 103.917969 216.160156 103.953125 216.160156 103.898438 C 214.3125 103.960938 212.046875 103.96875 210.296875 104.140625 C 208.1875 104.011719 205.746094 104.339844 203.835938 104.320312 C 203.882812 104.269531 203.972656 104.246094 204.105469 104.253906 C 202.238281 104.117188 199.371094 104.09375 196.992188 104.167969 C 196.765625 104.1875 196.761719 104.339844 196.449219 104.304688 C 196.304688 104.5 195.867188 104.511719 195.582031 104.582031 C 195.53125 104.59375 195.371094 104.683594 195.3125 104.683594 C 194.445312 104.71875 194.703125 104.097656 194.21875 103.78125 C 193.960938 103.882812 193.695312 103.921875 193.457031 103.789062 C 193.476562 103.574219 193.871094 103.59375 194 103.445312 C 193.929688 103.398438 193.691406 103.339844 193.671875 103.449219 C 193.550781 103.382812 193.550781 103.273438 193.671875 103.214844 C 193.476562 103.195312 193.539062 103.332031 193.347656 103.316406 C 193.324219 103.246094 193.382812 103.226562 193.398438 103.179688 C 193.226562 103.164062 193.230469 103.246094 193.128906 103.183594 C 193.113281 102.972656 193.140625 102.789062 193.339844 102.710938 C 192.25 102.496094 191.363281 101.949219 190.453125 101.515625 C 190.476562 101.308594 190.753906 101.253906 190.773438 101.042969 C 191.441406 100.917969 191.867188 100.855469 192.671875 100.828125 C 192.804688 100.761719 192.574219 100.640625 192.726562 100.558594 C 192.953125 100.589844 193.273438 100.578125 193.433594 100.417969 C 193.230469 100.367188 193.132812 100.40625 192.886719 100.355469 C 192.925781 100.273438 193.066406 100.261719 193.105469 100.183594 C 192.757812 99.988281 193.308594 99.6875 193.097656 99.476562 C 193.191406 99.398438 193.40625 99.527344 193.585938 99.503906 C 193.300781 99.402344 193.878906 99.445312 193.964844 99.367188 C 193.945312 99.296875 193.511719 99.445312 193.640625 99.304688 C 193.097656 99.355469 193.257812 99.28125 192.824219 99.308594 C 192.890625 98.796875 193.726562 98.597656 194.609375 98.351562 C 194.488281 98.25 194.28125 98.054688 194.390625 97.914062 C 194.316406 97.851562 194.085938 97.972656 193.957031 97.984375 C 193.957031 97.886719 194.097656 97.871094 194.117188 97.78125 C 193.988281 97.703125 194.015625 97.832031 193.847656 97.816406 C 194.003906 97.621094 194.300781 97.683594 194.550781 97.578125 C 194.304688 97.449219 194.046875 97.570312 193.734375 97.582031 C 193.757812 97.53125 193.90625 97.550781 193.84375 97.449219 C 193.6875 97.441406 193.738281 97.5625 193.519531 97.515625 C 193.492188 97.410156 193.683594 97.4375 193.625 97.3125 C 193.347656 97.351562 193.003906 97.386719 192.757812 97.351562 C 192.753906 97.230469 192.945312 97.222656 193.027344 97.148438 C 192.847656 97.09375 192.71875 97.183594 192.484375 97.1875 C 192.460938 97.039062 192.460938 96.882812 192.863281 96.847656 C 192.84375 96.769531 192.871094 96.71875 192.914062 96.679688 C 192.6875 96.582031 192.585938 96.640625 192.097656 96.617188 C 192.011719 96.464844 192.324219 96.351562 192.257812 96.246094 C 192.109375 96 191.808594 96.042969 191.386719 96.046875 C 191.5625 95.910156 191.480469 95.824219 191.65625 95.710938 C 191.386719 95.609375 191.585938 95.484375 191.597656 95.269531 C 191.695312 95.265625 191.714844 95.3125 191.816406 95.304688 C 191.9375 94.941406 192.890625 95.085938 193.007812 94.722656 C 192.753906 94.65625 192.910156 94.332031 192.675781 94.253906 C 192.980469 93.8125 192.707031 93.019531 193.699219 92.996094 C 193.640625 92.851562 193.464844 92.785156 193.152344 92.800781 C 193.203125 92.644531 193.039062 92.625 192.828125 92.632812 C 192.914062 92.460938 192.945312 92.449219 192.714844 92.363281 C 192.960938 92.066406 192.898438 91.769531 193.144531 91.347656 C 195.386719 91.46875 198.5 91.460938 200.476562 91.566406 C 200.53125 91.566406 200.519531 91.527344 200.53125 91.5 C 200.960938 91.6875 201.625 91.578125 202.050781 91.457031 C 202.023438 91.484375 201.996094 91.511719 201.996094 91.558594 C 202.234375 91.578125 202.304688 91.5 202.539062 91.519531 C 203.007812 91.589844 204.738281 91.378906 205.851562 91.363281 C 207.074219 91.34375 208.34375 91.183594 208.945312 91.035156 C 209.140625 91.324219 209.761719 91.214844 210.414062 91.195312 C 210.578125 91.179688 210.503906 91.316406 210.628906 91.328125 C 210.964844 91.179688 211.929688 91.410156 212.3125 91.214844 C 212.34375 91.128906 212.289062 91.09375 212.148438 91.113281 C 212.535156 90.996094 213.019531 91.128906 213.453125 91.039062 C 213.417969 91.003906 213.328125 91.003906 213.34375 90.9375 C 214.085938 90.976562 214.875 91.085938 215.355469 91.261719 C 215.621094 91.191406 215.78125 91.296875 216.007812 91.324219 C 216.652344 91.402344 217.628906 91.25 218.398438 91.238281 C 220.765625 91.210938 223.089844 91.398438 225.292969 91.257812 C 225.332031 91.292969 225.421875 91.292969 225.402344 91.359375 C 227.125 91.332031 228.492188 91.210938 230.183594 91.226562 C 230.199219 91.136719 230.066406 91.136719 229.964844 91.125 C 230.394531 91.089844 230.800781 91.214844 231.160156 91.285156 C 231.535156 91.046875 231.828125 91.316406 232.355469 91.3125 C 232.386719 91.386719 232.25 91.359375 232.246094 91.414062 C 234.015625 91.527344 235.59375 91.003906 237.40625 91.273438 C 237.472656 91.21875 237.582031 91.183594 237.730469 91.171875 C 237.679688 91.386719 237.175781 91.324219 236.917969 91.414062 C 237.75 91.417969 238.753906 91.308594 239.742188 91.496094 C 240.085938 91.179688 241.070312 91.371094 241.859375 91.277344 C 241.875 91.332031 241.808594 91.335938 241.804688 91.378906 C 242.058594 91.375 242.214844 91.4375 242.457031 91.441406 C 242.460938 91.328125 242.253906 91.34375 242.074219 91.34375 C 242.507812 91.175781 243.117188 91.464844 243.324219 91.132812 C 243.617188 91.171875 243.816406 91.171875 243.972656 91.058594 C 243.988281 91.113281 243.921875 91.117188 243.921875 91.164062 C 245.425781 91.347656 247.136719 91.328125 249.082031 91.328125 C 249.054688 91.199219 248.707031 91.273438 248.589844 91.199219 C 250.4375 91.027344 252.515625 91.527344 254.402344 91.15625 C 254.132812 91.050781 253.523438 91.070312 253.316406 91.03125 C 253.203125 91.011719 252.957031 91.074219 252.933594 91 C 253.554688 91.011719 253.769531 90.910156 254.292969 90.921875 C 254.375 90.882812 254.40625 90.8125 254.5625 90.820312 C 254.445312 90.890625 254.589844 90.914062 254.566406 91.019531 C 254.800781 91.050781 254.867188 90.980469 255 90.949219 C 255.296875 91.097656 255.570312 91.039062 255.921875 90.945312 C 257.808594 91.269531 260.214844 90.984375 262.332031 91.101562 C 261.820312 91.265625 261.0625 91.101562 260.59375 91.316406 C 260.6875 91.402344 261.132812 91.269531 261.03125 91.480469 C 261.265625 91.5 261.25 91.371094 261.464844 91.378906 C 261.535156 91.421875 261.535156 91.5 261.464844 91.546875 C 261.90625 91.464844 262.726562 91.480469 263.257812 91.667969 C 263.097656 91.667969 262.933594 91.671875 262.769531 91.671875 C 263.898438 91.753906 265.644531 91.949219 266.953125 91.914062 C 267.074219 92.085938 267.183594 91.917969 267.609375 92.007812 Z M 228.554688 91.4375 C 228.824219 91.421875 229.109375 91.460938 228.882812 91.570312 C 229.101562 91.582031 229.160156 91.496094 229.316406 91.46875 C 229.085938 91.464844 229.183594 91.390625 229.257812 91.332031 C 229.050781 91.457031 228.585938 91.214844 228.554688 91.4375 Z M 254.949219 91.21875 C 254.878906 91.210938 254.835938 91.167969 254.839844 91.253906 C 255.117188 91.246094 255.382812 91.21875 255.546875 91.25 C 255.527344 91.105469 255.074219 91.128906 254.949219 91.21875 Z M 239.964844 92.066406 C 239.914062 92.191406 240.269531 92.136719 240.234375 92.066406 C 240.101562 92.0625 240.066406 92.003906 239.964844 92.066406 Z M 240.34375 92.132812 C 240.527344 92.109375 240.851562 92.171875 240.941406 92.09375 C 240.652344 92.078125 240.53125 91.984375 240.34375 92.132812 Z M 232.265625 93.738281 C 232.421875 93.839844 232.726562 93.714844 232.753906 93.835938 C 232.917969 93.839844 233.03125 93.734375 233.136719 93.800781 C 233.136719 93.757812 233.136719 93.710938 233.132812 93.664062 C 232.863281 93.703125 232.496094 93.675781 232.265625 93.738281 Z M 257.695312 95.382812 C 257.859375 95.347656 258.089844 95.355469 258.128906 95.242188 C 257.917969 95.246094 257.652344 95.222656 257.695312 95.382812 Z M 258.894531 95.609375 C 259.644531 95.542969 258.566406 95.511719 258.457031 95.613281 C 258.640625 95.605469 258.78125 95.617188 258.894531 95.609375 Z M 209.648438 97.808594 C 209.691406 97.835938 209.980469 97.839844 209.972656 97.738281 C 209.832031 97.742188 209.65625 97.722656 209.648438 97.808594 Z M 225.847656 99.652344 C 225.917969 99.527344 225.527344 99.519531 225.46875 99.585938 C 225.679688 99.554688 225.605469 99.703125 225.847656 99.652344 Z M 226.71875 99.644531 C 227.199219 99.703125 227.601562 99.644531 228.183594 99.667969 C 227.886719 99.621094 227.019531 99.515625 226.71875 99.644531 Z M 229.542969 99.660156 C 229.457031 99.65625 229.355469 99.664062 229.378906 99.59375 C 229.050781 99.664062 228.550781 99.585938 228.292969 99.601562 C 228.890625 99.710938 229.171875 99.734375 229.542969 99.660156 Z M 223.839844 99.832031 C 223.472656 99.886719 222.949219 99.746094 222.808594 99.875 C 223.445312 99.964844 224.855469 100 225.578125 99.855469 C 225.003906 99.820312 224.652344 99.742188 224.113281 99.796875 C 224.535156 99.921875 223.734375 99.753906 223.730469 99.765625 C 223.792969 99.773438 223.816406 99.804688 223.839844 99.832031 Z M 229.921875 99.789062 C 230.050781 99.789062 230.175781 99.789062 230.304688 99.789062 C 230.324219 99.652344 229.933594 99.734375 229.921875 99.789062 Z M 225.742188 99.851562 C 225.707031 99.855469 225.679688 99.859375 225.6875 99.886719 C 225.925781 99.902344 226.664062 99.859375 226.066406 99.851562 C 225.953125 99.777344 225.890625 99.882812 225.796875 99.820312 C 225.792969 99.796875 225.785156 99.78125 225.742188 99.785156 C 225.742188 99.808594 225.742188 99.832031 225.742188 99.851562 Z M 222.648438 100.078125 C 222.59375 100.144531 222.445312 100.15625 222.378906 100.214844 C 223.558594 100.265625 225.578125 100.222656 226.9375 100.183594 C 225.734375 100 224.074219 100.191406 222.648438 100.078125 Z M 261.652344 101.421875 C 262.210938 101.636719 263.023438 101.714844 263.71875 101.679688 C 263.007812 101.648438 262.226562 101.316406 261.652344 101.421875 Z M 259.265625 101.777344 C 259.441406 101.878906 259.902344 101.855469 260.082031 101.769531 C 260.066406 101.847656 260.09375 101.898438 260.191406 101.90625 C 260.285156 101.835938 260.148438 101.839844 260.242188 101.769531 C 259.945312 101.636719 259.625 101.707031 259.265625 101.777344 Z M 258.289062 101.816406 C 258.507812 101.804688 258.589844 101.875 258.832031 101.847656 C 258.8125 101.675781 258.292969 101.746094 258.289062 101.816406 Z M 263.015625 102.085938 C 263.195312 102.117188 263.355469 102.109375 263.667969 102.117188 C 263.664062 101.960938 263.199219 102.058594 263.015625 102.085938 Z M 214.636719 103.640625 C 214.503906 103.699219 214.109375 103.578125 213.929688 103.679688 C 214.050781 103.78125 214.558594 103.761719 214.636719 103.640625 Z M 238.265625 103.8125 C 238.066406 103.839844 237.960938 103.730469 237.828125 103.816406 C 238.03125 103.96875 238.484375 103.921875 238.863281 103.910156 C 239.472656 103.890625 240.046875 103.804688 240.652344 103.863281 C 240.078125 103.679688 238.714844 103.78125 238.265625 103.8125 Z M 241.523438 103.824219 C 241.761719 103.863281 242.324219 103.824219 242.664062 103.746094 C 242.265625 103.789062 241.578125 103.621094 241.523438 103.824219 Z M 244.835938 103.730469 C 244.824219 103.882812 244.304688 103.722656 244.292969 103.871094 C 244.566406 103.925781 244.757812 103.878906 245 103.832031 C 245.027344 103.921875 245.042969 103.945312 245.164062 104.035156 C 246.292969 103.738281 247.390625 104.210938 248.476562 103.910156 C 247.277344 103.761719 246.03125 103.925781 244.835938 103.730469 Z M 234.84375 103.9375 C 234.566406 103.9375 234.214844 103.792969 234.085938 104.011719 C 235.0625 104.0625 236.03125 104.039062 237.015625 103.855469 C 236.308594 103.851562 235.527344 103.933594 234.84375 103.9375 Z M 234.84375 103.9375 " fill-opacity="1" fill-rule="evenodd"/></g><g clip-path="url(#c092215972)"><path fill="#3e7eaf" d="M 342.714844 23.910156 L 373.882812 23.910156 L 373.882812 25.28125 L 344.070312 25.28125 L 344.070312 55.402344 L 342.710938 55.402344 C 342.710938 44.90625 342.714844 34.398438 342.714844 23.910156 " fill-opacity="1" fill-rule="evenodd"/></g><g clip-path="url(#a3cccd85be)"><path fill="#3e7eaf" d="M 342.714844 244.777344 L 373.882812 244.777344 L 373.882812 243.414062 L 344.070312 243.414062 L 344.070312 213.285156 L 342.710938 213.285156 C 342.710938 223.78125 342.714844 234.289062 342.714844 244.777344 " fill-opacity="1" fill-rule="evenodd"/></g><g clip-path="url(#e1659c3b59)"><path fill="#3e7eaf" d="M 579.140625 23.910156 L 547.976562 23.910156 L 547.976562 25.28125 L 577.789062 25.28125 L 577.789062 55.402344 L 579.148438 55.402344 C 579.148438 44.90625 579.140625 34.398438 579.140625 23.910156 " fill-opacity="1" fill-rule="evenodd"/></g><g clip-path="url(#32e14d17c4)"><path fill="#3e7eaf" d="M 579.140625 244.777344 L 547.976562 244.777344 L 547.976562 243.414062 L 577.789062 243.414062 L 577.789062 213.285156 L 579.148438 213.285156 C 579.148438 223.78125 579.140625 234.289062 579.140625 244.777344 " fill-opacity="1" fill-rule="evenodd"/></g><path fill="#3e7eaf" d="M 459.535156 163.300781 L 462.316406 163.300781 L 462.316406 105.390625 L 459.535156 105.390625 L 459.535156 163.300781 " fill-opacity="1" fill-rule="evenodd"/><path fill="#3e7eaf" d="M 432.121094 135.742188 L 432.121094 132.949219 L 489.734375 132.949219 L 489.734375 135.742188 L 432.121094 135.742188 " fill-opacity="1" fill-rule="evenodd"/><g clip-path="url(#69baa6a830)"><path fill="#a8d2f0" d="M 460.078125 47.808594 C 511.78125 47.808594 553.867188 89.894531 553.867188 141.597656 C 553.867188 193.300781 511.78125 235.386719 460.078125 235.386719 C 408.363281 235.386719 366.285156 193.300781 366.285156 141.597656 C 366.285156 89.894531 408.363281 47.808594 460.078125 47.808594 Z M 460.078125 39.28125 C 403.574219 39.28125 357.761719 85.09375 357.761719 141.597656 C 357.761719 198.101562 403.574219 243.914062 460.078125 243.914062 C 516.582031 243.914062 562.390625 198.101562 562.390625 141.597656 C 562.390625 85.09375 516.582031 39.28125 460.078125 39.28125 Z M 460.078125 39.28125 " fill-opacity="1" fill-rule="nonzero"/></g><path fill="#a8d2f0" d="M 495.527344 213.933594 C 493.976562 213.933594 492.511719 213.082031 491.742188 211.625 C 490.660156 209.535156 491.46875 206.960938 493.550781 205.867188 C 505.835938 199.457031 516 189.703125 522.933594 177.65625 C 524.109375 175.632812 526.71875 174.941406 528.757812 176.085938 C 530.792969 177.261719 531.5 179.863281 530.332031 181.917969 C 522.589844 195.355469 511.242188 206.25 497.515625 213.40625 C 496.859375 213.78125 496.195312 213.933594 495.527344 213.933594 Z M 495.527344 213.933594 " fill-opacity="1" fill-rule="nonzero"/><path fill="#a8d2f0" d="M 383.339844 145.859375 C 380.984375 145.859375 379.078125 143.949219 379.078125 141.597656 C 379.078125 96.9375 415.414062 60.597656 460.078125 60.597656 C 462.429688 60.597656 464.339844 62.507812 464.339844 64.859375 C 464.339844 67.210938 462.429688 69.121094 460.078125 69.121094 C 420.113281 69.121094 387.601562 101.632812 387.601562 141.597656 C 387.601562 143.949219 385.691406 145.859375 383.339844 145.859375 Z M 383.339844 145.859375 " fill-opacity="1" fill-rule="nonzero"/><path fill="#a8d2f0" d="M 460.078125 197.019531 C 429.519531 197.019531 404.65625 172.15625 404.65625 141.597656 C 404.65625 111.039062 429.519531 86.175781 460.078125 86.175781 C 490.636719 86.175781 515.496094 111.039062 515.496094 141.597656 C 515.496094 172.15625 490.636719 197.019531 460.078125 197.019531 Z M 460.078125 94.703125 C 434.214844 94.703125 413.179688 115.746094 413.179688 141.597656 C 413.179688 167.449219 434.214844 188.492188 460.078125 188.492188 C 485.9375 188.492188 506.972656 167.449219 506.972656 141.597656 C 506.972656 115.746094 485.9375 94.703125 460.078125 94.703125 Z M 460.078125 94.703125 " fill-opacity="1" fill-rule="nonzero"/><g clip-path="url(#f97d435964)"><path fill="#ffffff" d="M 353.242188 43.863281 L 381.046875 43.863281 L 381.046875 45.078125 L 354.453125 45.078125 L 354.453125 71.816406 L 353.238281 71.816406 C 353.238281 62.496094 353.242188 53.171875 353.242188 43.863281 " fill-opacity="1" fill-rule="evenodd"/></g><g clip-path="url(#684de90ea6)"><path fill="#ffffff" d="M 353.242188 239.914062 L 381.046875 239.914062 L 381.046875 238.703125 L 354.453125 238.703125 L 354.453125 211.960938 L 353.238281 211.960938 C 353.238281 221.277344 353.242188 230.601562 353.242188 239.914062 " fill-opacity="1" fill-rule="evenodd"/></g><g clip-path="url(#5c320f666e)"><path fill="#ffffff" d="M 564.175781 43.863281 L 536.371094 43.863281 L 536.371094 45.078125 L 562.964844 45.078125 L 562.964844 71.816406 L 564.179688 71.816406 C 564.179688 62.496094 564.175781 53.171875 564.175781 43.863281 " fill-opacity="1" fill-rule="evenodd"/></g><g clip-path="url(#a772d780c3)"><path fill="#ffffff" d="M 564.175781 239.914062 L 536.371094 239.914062 L 536.371094 238.703125 L 562.964844 238.703125 L 562.964844 211.960938 L 564.179688 211.960938 C 564.179688 221.277344 564.175781 230.601562 564.175781 239.914062 " fill-opacity="1" fill-rule="evenodd"/></g><path fill="#ffffff" d="M 457.464844 167.589844 L 459.945312 167.589844 L 459.945312 116.1875 L 457.464844 116.1875 L 457.464844 167.589844 " fill-opacity="1" fill-rule="evenodd"/><path fill="#ffffff" d="M 433.007812 143.128906 L 433.007812 140.648438 L 484.410156 140.648438 L 484.410156 143.128906 L 433.007812 143.128906 " fill-opacity="1" fill-rule="evenodd"/></svg>